<?xml version="1.0" encoding="UTF-8" standalone="no"?>
<svg width="88px" height="21px" viewBox="0 0 88 21" version="1.1" xmlns="http://www.w3.org/2000/svg" xmlns:xlink="http://www.w3.org/1999/xlink">
    <!-- Generator: sketchtool 41 (35326) - http://www.bohemiancoding.com/sketch -->
    <title>411ED8FB-E633-4B38-8B29-0C905BE96B00</title>
    <desc>Created with sketchtool.</desc>
    <defs></defs>
    <g id="Page-1" stroke="none" stroke-width="1" fill="none" fill-rule="evenodd">
        <g id="Desktop-Calendar-Header---Primary-and-Secondary" transform="translate(-18.000000, -9.000000)" fill="#FFFFFF">
            <g id="main-header">
                <g id="zimbra-logo" transform="translate(18.000000, 9.000000)">
                    <path d="M11.118478,18.4287928 L3.96322667,18.4287928 L11.6811558,7.96353321 C12.1003148,7.3983002 12.2586075,7.03330669 12.2586075,6.61888697 C12.2586075,6.38316199 12.1539233,5.61346503 10.8132898,5.61346503 L1.79102894,5.61346503 C0.853092033,5.61346503 0.317429593,6.05238662 0.317429593,6.8157469 C0.317429593,7.57910717 0.853092033,8.01633898 1.79102894,8.01633898 L8.17507837,8.01633898 L0.585893984,18.4815986 C0.168001301,19.0468316 0.0113970732,19.4105577 0.0113970732,19.8249774 C0.0113970732,20.0611249 0.115237073,20.8291321 1.45502634,20.8291321 L11.118478,20.8291321 C12.0559928,20.8291321 12.5950322,20.3919002 12.5950322,19.6293849 C12.5950322,18.8643348 12.0559928,18.4287928 11.118478,18.4287928" id="Fill-4"></path>
                    <path d="M15.5679798,5.44533144 C14.6726764,5.44533144 14.0939584,6.01690114 14.0939584,6.8989688 L14.0939584,19.5453181 C14.0939584,20.4278082 14.6726764,20.998533 15.5679798,20.998533 C16.4649717,20.998533 17.0415792,20.4278082 17.0415792,19.5453181 L17.0415792,6.8989688 C17.0415792,6.01690114 16.4649717,5.44533144 15.5679798,5.44533144" id="Fill-5"></path>
                    <path d="M36.0818673,5.44533144 C33.9810068,5.44533144 32.4466231,6.19728567 31.1220299,7.87862152 C30.0317099,6.26445461 28.5332059,5.44533144 26.6615532,5.44533144 C24.309535,5.44533144 23.2420091,6.43934734 22.6506276,7.11441636 L22.6506276,6.8989688 C22.6506276,6.01690114 22.0710654,5.44533144 21.1761841,5.44533144 C20.2834133,5.44533144 19.6996299,6.01690114 19.6996299,6.8989688 L19.6996299,19.5453181 C19.6996299,20.4278082 20.2834133,20.998533 21.1761841,20.998533 C22.0710654,20.998533 22.6506276,20.4278082 22.6506276,19.5453181 L22.6506276,11.1703223 C22.6506276,9.09061965 23.8882654,7.84693806 25.9650654,7.84693806 C28.0566393,7.84693806 29.3056741,9.09061965 29.3056741,11.1703223 L29.3056741,19.5453181 C29.3056741,20.4278082 29.8822816,20.998533 30.7784293,20.998533 C31.674999,20.998533 32.2516065,20.4278082 32.2516065,19.5453181 L32.2516065,11.1703223 C32.2516065,9.09061965 33.4913548,7.84693806 35.5647779,7.84693806 C37.6571961,7.84693806 38.9058088,9.09061965 38.9058088,11.1703223 L38.9058088,19.5453181 C38.9058088,20.4278082 39.4845268,20.998533 40.3802524,20.998533 C41.2772442,20.998533 41.8555402,20.4278082 41.8555402,19.5453181 L41.8555402,11.2556564 C41.8555402,7.24241755 38.954774,5.44533144 36.0818673,5.44533144" id="Fill-6"></path>
                    <path d="M51.6283193,7.84693806 C54.8135902,7.84693806 55.9444332,10.7432292 55.9444332,13.221721 C55.9444332,15.7014801 54.8135902,18.5977713 51.6283193,18.5977713 C48.4417821,18.5977713 47.3126276,15.7014801 47.3126276,13.221721 C47.3126276,10.7432292 48.4417821,7.84693806 51.6283193,7.84693806 M51.8448637,5.44575389 C49.8854114,5.44575389 48.3978823,6.36668659 47.5857353,7.30282736 L47.5857353,1.84102051 C47.5857353,0.958530415 47.006173,0.389072945 46.1104475,0.389072945 C45.2168325,0.389072945 44.6368481,0.958530415 44.6368481,1.84102051 L44.6368481,19.5453181 C44.6368481,20.4278082 45.2168325,20.998533 46.1104475,20.998533 C47.006173,20.998533 47.5857353,20.4278082 47.5857353,19.5453181 L47.5857353,19.1803246 C48.4147668,20.3868309 49.8474211,20.998533 51.8448637,20.998533 C56.4716533,20.998533 58.8937424,17.0854139 58.8937424,13.221721 C58.8937424,9.35760565 56.4716533,5.44575389 51.8448637,5.44575389" id="Fill-7"></path>
                    <path d="M75.799401,18.5973488 C72.6128637,18.5973488 71.4832872,15.7014801 71.4832872,13.221721 C71.4832872,10.7428067 72.6128637,7.84693806 75.799401,7.84693806 C78.9872046,7.84693806 80.1176254,10.7428067 80.1176254,13.221721 C80.1176254,15.7014801 78.9872046,18.5973488 75.799401,18.5973488 M81.5304403,5.44575389 C80.8647668,5.44575389 80.1492839,5.86566541 80.1492839,6.78659811 L80.1492839,7.3150783 C78.799786,6.00718488 77.4865899,5.44575389 75.799401,5.44575389 C71.0316254,5.44575389 68.5348221,9.35760565 68.5348221,13.221721 C68.5348221,17.0854139 71.0316254,20.998533 75.799401,20.998533 C77.5195148,20.998533 79.018441,20.2803744 80.1492839,18.9200977 L80.1492839,19.6564214 C80.1492839,20.5777766 80.8647668,20.998533 81.5304403,20.998533 C82.089319,20.998533 82.9149737,20.6415659 82.9149737,19.6564214 L82.9149737,6.78659811 C82.9149737,5.80314337 82.089319,5.44575389 81.5304403,5.44575389" id="Fill-9"></path>
                    <path d="M85.586532,7.0434454 L85.8300917,7.0434454 C86.1078426,7.0434454 86.3433821,6.9429032 86.3433821,6.68140901 C86.3433821,6.49595513 86.2091499,6.3109237 85.8300917,6.3109237 C85.7211863,6.3109237 85.6452059,6.31895017 85.586532,6.32782154 L85.586532,7.0434454 Z M85.586532,8.21362135 L85.2496852,8.21362135 L85.2496852,6.10054549 C85.4265509,6.07519872 85.5945522,6.05027439 85.8473984,6.05027439 C86.1669385,6.05027439 86.3771512,6.11702089 86.5033633,6.20995906 C86.6295753,6.30247477 86.6966914,6.44568403 86.6966914,6.64761331 C86.6966914,6.92558291 86.5113834,7.09371649 86.2842862,7.16088544 L86.2842862,7.17820573 C86.4695941,7.21157898 86.594962,7.38013501 86.6380176,7.6919003 C86.6886712,8.020141 86.7384807,8.14645241 86.7722498,8.21362135 L86.4193626,8.21362135 C86.3678647,8.14645241 86.3180553,7.95297205 86.276266,7.67500246 C86.2256124,7.40548178 86.0913802,7.30493959 85.8220715,7.30493959 L85.586532,7.30493959 L85.586532,8.21362135 Z M85.9398413,5.51123305 C85.1065886,5.51123305 84.4252969,6.22643446 84.4252969,7.11103679 C84.4252969,8.01169207 85.1065886,8.718867 85.9478615,8.718867 C86.7891343,8.72731593 87.4624059,8.01169207 87.4624059,7.11906327 C87.4624059,6.22643446 86.7891343,5.51123305 85.9478615,5.51123305 L85.9398413,5.51123305 Z M85.9478615,5.21636561 C86.9824624,5.21636561 87.8072728,6.05872332 87.8072728,7.11103679 C87.8072728,8.1802481 86.9824624,9.013312 85.9398413,9.013312 C84.9052403,9.013312 84.0631233,8.1802481 84.0631233,7.11103679 C84.0631233,6.05872332 84.9052403,5.21636561 85.9398413,5.21636561 L85.9478615,5.21636561 L85.9478615,5.21636561 Z" id="Fill-10"></path>
                    <path d="M16.9466036,2.07759038 C16.9466036,3.00274755 16.1956631,3.75470177 15.2703896,3.75470177 C14.3438498,3.75470177 13.5937535,3.00274755 13.5937535,2.07759038 C13.5937535,1.15201077 14.3438498,0.3996341 15.2703896,0.3996341 C16.1956631,0.3996341 16.9466036,1.15201077 16.9466036,2.07759038" id="Fill-11"></path>
                    <path d="M69.0134992,6.8432059 C69.0134992,6.01985827 68.345293,5.44533144 67.388361,5.44533144 C65.9763902,5.44533144 64.5547109,6.59396265 63.8025041,7.77723444 L63.8025041,6.8989688 C63.8025041,6.0164787 63.2212533,5.44533144 62.3289047,5.44533144 C61.4327571,5.44533144 60.8515063,6.0164787 60.8515063,6.8989688 L60.8515063,19.5453181 C60.8515063,20.4278082 61.4327571,20.9981105 62.3289047,20.9981105 C63.2212533,20.9981105 63.8025041,20.4278082 63.8025041,19.5453181 L63.8025041,12.4351262 C63.8025041,9.12737247 66.4208761,8.45145856 67.228802,8.32387981 C68.4111428,8.11688118 69.0134992,7.61923956 69.0134992,6.8432059" id="Combined-Shape"></path>
                </g>
            </g>
        </g>
    </g>
</svg>