<?xml version="1.0" encoding="iso-8859-1"?>
<!-- Generator: Adobe Illustrator 19.0.0, SVG Export Plug-In . SVG Version: 6.00 Build 0)  -->
<svg version="1.1" id="Layer_1" xmlns="http://www.w3.org/2000/svg" xmlns:xlink="http://www.w3.org/1999/xlink" x="0px" y="0px"
	 viewBox="0 0 512 512" style="enable-background:new 0 0 512 512;" xml:space="preserve">
<g>
	<g>
		<path d="M278.406,22.407c-86.155,0-161.824,46.757-202.333,116.783c-4.148,7.171-1.698,16.347,5.473,20.495
			c7.172,4.148,16.347,1.696,20.495-5.474c35.237-60.91,101.094-101.804,176.365-101.804C390.668,52.407,482,143.738,482,256.001
			s-91.332,203.594-203.594,203.594c-75.317,0-141.153-40.934-176.366-101.807c-4.148-7.171-13.323-9.62-20.495-5.474
			c-7.171,4.148-9.622,13.324-5.473,20.495c40.519,70.047,116.201,116.785,202.334,116.785C407.514,489.595,512,385.119,512,256.001
			C512,126.892,407.525,22.407,278.406,22.407z"/>
	</g>
</g>
<g>
	<g>
		<path d="M15,241.001c-8.284,0-15,6.716-15,15s6.716,15,15,15h233.028v-30H15z"/>
	</g>
</g>
<g>
	<g>
		<path d="M356.453,243.741l-54.781-38.621c-9.916-6.99-23.644,0.116-23.644,12.26v77.241c0,12.194,13.757,19.227,23.643,12.26
			l54.781-38.62C364.931,262.283,364.908,249.704,356.453,243.741z"/>
	</g>
</g>
<g>
</g>
<g>
</g>
<g>
</g>
<g>
</g>
<g>
</g>
<g>
</g>
<g>
</g>
<g>
</g>
<g>
</g>
<g>
</g>
<g>
</g>
<g>
</g>
<g>
</g>
<g>
</g>
<g>
</g>
</svg>
