<?xml version="1.0" encoding="utf-8"?>
<!-- Generator: Adobe Illustrator 22.1.0, SVG Export Plug-In . SVG Version: 6.00 Build 0)  -->
<svg version="1.1" id="Layer_1" xmlns="http://www.w3.org/2000/svg" xmlns:xlink="http://www.w3.org/1999/xlink" x="0px" y="0px"
	 viewBox="0 0 392 129" style="enable-background:new 0 0 392 129;" xml:space="preserve">
<style type="text/css">
	.st0{fill:#207DC1;}
	.st1{fill:none;}
	.st2{fill:#2B2422;}
	.st3{fill:#F5B000;}
	.st4{fill:#314E8B;}
	.st5{fill:#FBE912;}
	.st6{fill:none;stroke:#FFFFFF;stroke-width:0.2713;stroke-miterlimit:10;}
	.st7{fill:#97C226;}
	.st8{fill:#F4ECE0;}
</style>
<g>
	<path class="st0" d="M122,63.4c-1.3,1.4-2.6,2.8-3.9,4.2c-0.8,0.8-1.6,1.6-2.4,2.4c-0.9,0.9-1.9,1.8-2.9,2.7
		c-1.7,1.5-3.5,3-5.2,4.4c-0.7,0.6-1.4,1.1-2.1,1.6c-1.5,1.5-3,2.8-4.9,4.1c-3.8,2.5-7.9,4.5-12.1,6.3c0.5,0.3,0.9,0.5,1,0.6
		c18.2,8.5,35.8-6,35.8-24.8v-0.1c0-1.6-0.1-3.3-0.2-4.9C124.2,61.1,122.8,62.6,122,63.4z"/>
	<g>
		<path class="st1" d="M87.6,27.7c-0.9-0.6-4.5-2.9-6.5-4.1c3.1,1.8,6.3,6.5,7.9,9.6c5.3,10.6,4.4,24.8,4.4,36.1c0,5.2,2.8,6,5.6,6
			c1.9,0,7.9-2.1,7.9-13.2"/>
		<path class="st1" d="M66.6,51.7c-8.2-0.8-15.1,6-14.3,14.3c0.6,6.1,5.5,11,11.6,11.6c8.2,0.8,15.1-6,14.3-14.3
			C77.6,57.2,72.7,52.3,66.6,51.7z"/>
		<g>
			<path class="st1" d="M66.6,51.7c-8.2-0.8-15.1,6-14.3,14.3c0.6,6.1,5.5,11,11.6,11.6c8.2,0.8,15.1-6,14.3-14.3
				C77.6,57.2,72.7,52.3,66.6,51.7z"/>
			<path class="st1" d="M87.6,27.7c-0.9-0.6-4.5-2.9-6.5-4.1c3.1,1.8,6.3,6.5,7.9,9.6c5.3,10.6,4.4,24.8,4.4,36.1c0,5.2,2.8,6,5.6,6
				c1.9,0,7.9-2.1,7.9-13.2"/>
			<path class="st0" d="M64.1,125.3c15.3,0.1,27.1-5,37.9-14.2c1-0.9,0.9-2.4-0.2-3.2L91.1,98c-0.9-0.6-2.1-0.6-3,0
				c-3.3,2.4-6.5,4.9-10.3,6.4c-8.4,3.5-18.1,3.5-26.7,0.6l1.2,18.9C56.1,124.9,60,125.3,64.1,125.3z"/>
		</g>
	</g>
	<g>
		<path class="st2" d="M368.8,48.3"/>
		<g>
			<path class="st0" d="M217.7,30.1c-15,0-27.2,12.2-27.2,27.2s12.2,27.2,27.2,27.2s27.2-12.2,27.2-27.2
				C244.9,42.2,232.7,30.1,217.7,30.1z M217.7,69.9c-6.9,0-12.5-5.6-12.5-12.5s5.6-12.5,12.5-12.5s12.5,5.6,12.5,12.5
				C230.2,64.3,224.6,69.9,217.7,69.9z"/>
		</g>
		<g>
			<path class="st3" d="M296.9,82.7c-5.5,0-9.9-4.7-9.9-10.4c0-5.8,4.4-10.4,9.9-10.4s9.9,4.7,9.9,10.4
				C306.8,78,302.3,82.7,296.9,82.7z"/>
		</g>
		<polygon class="st0" points="279,32.6 268.6,65.4 258.2,32.6 242,32.6 260.5,81.2 260.5,81.2 276.7,81.2 276.7,81.2 295.2,32.6"/>
		<rect x="313.2" y="31.9" class="st0" width="15.4" height="48.5"/>
		<path class="st0" d="M186.3,31.9h-14.6l0.5,3.3c-3.5-2.4-8.1-3.8-12.9-3.8c-14.7,0-26.7,11.9-26.7,26.7
			c0,14.7,11.9,26.7,26.7,26.7c4.4,0,8.6-1.1,12.3-3v2.7c0,6.4-3.5,12.1-11.4,12.2c-0.2,0-0.4,0-0.6,0s-0.4,0-0.6,0
			c-1.4-0.1-4.3-0.4-5.6-0.9c0.4,5.1,0.4,9.4,0.5,14.5c1.7,0.8,4.7,1.1,6.3,1.1c15.6-0.1,26.1-12.5,26.1-27.1v-7.5
			c0,0.1,0.1,0.2,0.1,0.2L186.3,31.9L186.3,31.9z M159.2,70.2c-6.6,0-12-5.4-12-12s5.4-12,12-12s12,5.4,12,12
			C171.3,64.8,165.9,70.2,159.2,70.2z"/>
		<path class="st0" d="M365.2,30.1c-9,0-13.6,6-13.6,6c-0.1,0.1-0.2,0.1-0.4,0.2l0.4-4.4h-15.4v25.7v22.9h15.4V57.6l0,0
			c0-6.6,4.6-12.7,11.2-12.7c6.6,0,10.4,6.1,10.5,12.7l0,0v22.9h15.4V57.6C388.7,40.5,382.9,30.1,365.2,30.1z"/>
	</g>
	<path class="st4" d="M65.7,77.6L65.7,77.6c0.3,0,0.6,0,1-0.1C66.4,77.5,66,77.6,65.7,77.6"/>
	<path class="st3" d="M69.7,31.4c0,1.4-1.2,2.6-2.6,2.6c-1.4,0-2.6-1.2-2.6-2.6c0-1.4,1.2-2.6,2.6-2.6
		C68.5,28.8,69.7,29.9,69.7,31.4"/>
	<path class="st5" d="M75.8,5c-1.6-0.5-3.1-0.7-4.6-0.7C72.8,4.5,74.3,4.7,75.8,5"/>
	<g>
		<path class="st0" d="M124.2,72.9v-0.1l0,0C124.1,72.8,124.1,72.8,124.2,72.9z"/>
		<g>
			<path class="st0" d="M113.7,68.1c3-4,7.9-12.1,9.7-18.4c0-0.2-0.1-0.4-0.1-0.5v-0.1c-0.4-1.4-0.8-2.9-1.3-4.2v-0.1
				c-0.5-1.4-1-2.7-1.6-4v-0.1c0,0,0-0.1-0.1-0.1c0-0.1,0-0.1-0.1-0.2c-0.6-1.3-1.2-2.6-1.9-3.8c0,0,0,0,0-0.1
				c-0.4-0.8-0.8-1.5-1.3-2.3c-0.1-0.2-0.3-0.4-0.4-0.7c-0.3-0.5-0.6-1-1-1.6c-0.2-0.2-0.3-0.5-0.5-0.7c-0.3-0.5-0.7-1-1-1.5
				c-0.1-0.2-0.3-0.4-0.5-0.6c-0.5-0.7-1-1.4-1.5-2.1l0,0c-0.9-1.1-1.9-2.2-2.8-3.3l-0.1-0.1l0,0c-0.1-0.1-0.2-0.2-0.3-0.3
				c-0.6-0.6-1.2-1.3-1.9-1.9c-0.3-0.3-0.7-0.7-1-1l0,0c0.1,0.2,0.2,0.4,0.3,0.6c-0.1-0.2-0.2-0.4-0.3-0.6
				C95.3,10.4,80.9,4.1,65.2,4C31.2,3.7,3.6,31.4,4,65.4c0.3,28.2,20.2,52,46.7,58.3c-0.7-4.3-3-14.4-16.9-29.3
				c0.1,0.1,0.3,0.3,0.5,0.4c-7.5-7.5-12.2-17.7-12.5-29C21.4,52.3,27,37,39,29.6c12.9-8,32.8-8.3,37.3,9.1
				c-0.2-0.6-4.7-1.9-5.3-2.1c-6.3-1.8-15.4-0.4-21,3c-5.1,3.1-9.7,8.1-11.9,13.8c-0.3,0.8-0.6,1.6-0.8,2.5
				c-0.7,2.5-1.1,5.2-1.2,7.8C35.7,76.7,45,88.3,57,92.3c3.9,1,10,1.5,14.2,1.1c5.2-0.5,11-2.4,16.3-4.6c0-0.2,0.2-0.3,0.5-0.2
				c7-3,12.8-6.5,14.4-7.8C107.3,76.9,109.6,73.7,113.7,68.1z M64,77.6C57.9,77,53,72.1,52.4,66c-0.8-8.2,6-15.1,14.3-14.3
				c6.1,0.6,11,5.5,11.6,11.6C79.1,71.5,72.2,78.4,64,77.6z M93.4,69.4c0-11.4,2-24.3-4.4-36.1c-1.7-3.1-4.5-7.8-7.6-9.6
				c2,1.1,3.9,1.6,7.6,4.3c11.4,8.6,17.9,20.2,17.9,34.1c0,11.2-6,13.2-7.9,13.2C96.2,75.4,93.4,74.6,93.4,69.4z"/>
			<path class="st1" d="M87.4,88.9c0.2-0.1,0.3-0.1,0.5-0.2C87.6,88.6,87.4,88.7,87.4,88.9z"/>
			<path class="st3" d="M87.9,88.7c7-3,12.8-6.5,14.4-7.8c5-4,7.2-7.2,11.4-12.8c3-4,7.9-12.1,9.7-18.4c0-0.2-0.1-0.4-0.1-0.5v-0.1
				c-0.4-1.4-0.8-2.9-1.3-4.2v-0.1c-0.5-1.4-1-2.7-1.6-4v-0.1c0,0,0-0.1-0.1-0.1c0-0.1,0-0.1-0.1-0.2c-0.6-1.3-1.2-2.6-1.9-3.8
				c0,0,0,0,0-0.1c-0.4-0.8-0.8-1.5-1.3-2.3c-0.1-0.2-0.3-0.4-0.4-0.7c-0.3-0.5-0.6-1-1-1.6c-0.2-0.2-0.3-0.5-0.5-0.7
				c-0.3-0.5-0.7-1-1-1.5c-0.1-0.2-0.3-0.4-0.5-0.6c-0.5-0.7-1-1.4-1.5-2.1l0,0c-0.9-1.1-1.9-2.2-2.8-3.3l-0.1-0.1l0,0
				c-0.1-0.1-0.2-0.2-0.3-0.3c-0.6-0.6-1.2-1.3-1.9-1.9c-0.3-0.3-0.7-0.7-1-1l0,0c0.8,1.5,1.4,3.5,1.9,4.9c0.1,0.2,0.1,0.4,0.2,0.5
				c0.9,2.3,1.7,4.7,2.2,7.2c1.1,4.9,1.6,10.2,1.4,15.2c-0.7,16.4-3.9,28.8-18,34.9c-10.2,4.4-32.5,2.1-43.4-6.4
				c-4.6-3.6-11.9-12.5-13.2-20.8c-0.7,2.5-1.1,5.2-1.2,7.8c-0.4,13,8.9,24.6,20.9,28.6c3.9,1,10,1.5,14.2,1.1
				c5.2-0.5,11-2.4,16.3-4.6c0-0.1,0.1-0.2,0.1-0.2"/>
		</g>
	</g>
	<path class="st6" d="M35.3,73.3"/>
	<g>
		<path class="st3" d="M48.4,104.2c-2.6-1.1-5.3-2.3-7.6-3.9c-2.4-1.6-4.6-3.4-6.7-5.5c-0.2-0.1-0.3-0.3-0.5-0.4
			c13.9,14.9,16.1,25,16.9,29.3c0.6,0.1,1.1,0.2,1.7,0.4L51,105.2C50.2,104.8,49.3,104.5,48.4,104.2z"/>
		<path class="st3" d="M37.1,54.9L37.1,54.9C37.1,54.8,37.1,54.7,37.1,54.9z"/>
		<path class="st1" d="M64,77.6c8.2,0.8,15.1-6,14.3-14.3c-0.6-6.1-5.5-11-11.6-11.6c-8.2-0.8-15.1,6-14.3,14.3
			C53,72.1,57.9,77,64,77.6z"/>
		<line class="st1" x1="125.1" y1="59.8" x2="125.1" y2="59.8"/>
		<path class="st7" d="M124.8,60.1L124.8,60.1c-0.1,0.1-0.2,0.3-0.3,0.4l0,0c-0.4,0.5-1,1.2-1.6,1.9l0,0c-0.1,0.1-0.2,0.3-0.3,0.4
			c-0.1,0.1-0.1,0.1-0.2,0.2c-0.1,0.1-0.2,0.2-0.3,0.4c-0.1,0.1-0.2,0.2-0.2,0.3c-0.1,0.1-0.2,0.2-0.3,0.3c-0.1,0.1-0.2,0.2-0.3,0.3
			c-0.1,0.1-0.2,0.2-0.3,0.3c-0.1,0.1-0.2,0.2-0.3,0.4c-0.1,0.1-0.2,0.2-0.3,0.3c-0.1,0.1-0.2,0.3-0.4,0.4c-0.1,0.1-0.2,0.2-0.3,0.3
			c-0.1,0.2-0.3,0.3-0.5,0.5c-0.1,0.1-0.2,0.2-0.2,0.3c-0.2,0.3-0.5,0.5-0.7,0.8l0,0c-0.2,0.2-0.5,0.5-0.7,0.7
			c-0.1,0.1-0.2,0.2-0.2,0.2c-0.2,0.2-0.4,0.4-0.6,0.5c-0.1,0.1-0.2,0.2-0.3,0.3c-0.2,0.2-0.4,0.3-0.5,0.5c-0.1,0.1-0.2,0.2-0.3,0.3
			c-0.2,0.2-0.4,0.3-0.5,0.5c-0.1,0.1-0.2,0.2-0.3,0.3c-0.2,0.2-0.4,0.3-0.6,0.5c-0.1,0.1-0.2,0.2-0.3,0.3c-0.2,0.2-0.4,0.4-0.6,0.5
			c-0.1,0.1-0.2,0.2-0.3,0.3c-0.2,0.2-0.5,0.4-0.7,0.6c-0.1,0.1-0.2,0.1-0.2,0.2c-0.6,0.6-1.3,1.1-1.9,1.6c-0.1,0.1-0.2,0.2-0.3,0.2
			c-0.2,0.2-0.5,0.4-0.7,0.6c-0.1,0.1-0.3,0.2-0.4,0.3c-0.2,0.2-0.4,0.3-0.6,0.5c-0.1,0.1-0.3,0.2-0.4,0.3c-0.2,0.2-0.4,0.3-0.6,0.5
			c-0.1,0.1-0.3,0.2-0.4,0.3c-0.2,0.2-0.4,0.3-0.6,0.5c-0.1,0.1-0.3,0.2-0.4,0.3c-0.2,0.2-0.4,0.3-0.6,0.5c-0.1,0.1-0.3,0.2-0.4,0.3
			c-0.2,0.2-0.5,0.3-0.7,0.5c-0.1,0.1-0.2,0.2-0.3,0.2c-0.4,0.2-0.7,0.5-1.1,0.7c-1.7,1.3-7.5,4.8-14.4,7.8
			c-0.2,0.1-0.3,0.1-0.5,0.2c-5.2,2.2-11.1,4.1-16.3,4.6c-4.2,0.4-10.3-0.1-14.2-1.1c-1-0.3-1.8-0.5-2.5-0.8
			c11.6,5.5,26.9,2.7,36.4-1.4c0.3-0.1,0.6-0.2,0.8-0.4c8.2-3.4,17.6-7.8,28.1-7.9c3.5-4.7,5.5-10.6,5.5-17.1v-0.1
			c0-1.6-0.1-3.2-0.2-4.8C125,59.9,124.9,60,124.8,60.1z"/>
		<path class="st7" d="M107.9,76.8c-0.1,0.1-0.3,0.2-0.4,0.3C107.7,77,107.8,76.9,107.9,76.8z"/>
		<path class="st7" d="M106.9,77.5c-0.1,0.1-0.3,0.2-0.4,0.3C106.7,77.8,106.8,77.7,106.9,77.5z"/>
		<path class="st7" d="M119.1,66.6c-0.1,0.1-0.2,0.2-0.2,0.3C119,66.7,119,66.6,119.1,66.6z"/>
		<path class="st7" d="M112.1,73.3c-0.1,0.1-0.2,0.1-0.2,0.2C111.9,73.4,112,73.4,112.1,73.3z"/>
		<path class="st7" d="M119.9,65.8c-0.1,0.1-0.2,0.2-0.3,0.3C119.7,66,119.8,65.9,119.9,65.8z"/>
		<path class="st7" d="M105.9,78.3c-0.1,0.1-0.3,0.2-0.4,0.3C105.6,78.5,105.8,78.4,105.9,78.3z"/>
		<path class="st7" d="M109.9,75.2c-0.1,0.1-0.2,0.2-0.3,0.2C109.7,75.3,109.8,75.2,109.9,75.2z"/>
		<path class="st7" d="M104.8,79.1c-0.1,0.1-0.3,0.2-0.4,0.3C104.6,79.3,104.7,79.2,104.8,79.1z"/>
		<path class="st7" d="M116.6,69.1c-0.1,0.1-0.2,0.2-0.3,0.3C116.4,69.3,116.5,69.2,116.6,69.1z"/>
		<path class="st7" d="M109,76c-0.1,0.1-0.3,0.2-0.4,0.3C108.7,76.2,108.8,76.1,109,76z"/>
		<path class="st7" d="M117.4,68.3c-0.1,0.1-0.2,0.2-0.2,0.2C117.2,68.5,117.3,68.4,117.4,68.3z"/>
		<path class="st7" d="M118.1,67.6L118.1,67.6L118.1,67.6z"/>
		<path class="st7" d="M120.5,65c-0.1,0.1-0.2,0.2-0.3,0.3C120.3,65.3,120.4,65.1,120.5,65z"/>
		<path class="st7" d="M124.8,60.1c-0.1,0.1-0.2,0.3-0.3,0.4C124.6,60.4,124.7,60.3,124.8,60.1z"/>
		<path class="st7" d="M115.7,69.9c-0.1,0.1-0.2,0.2-0.3,0.3C115.5,70.1,115.6,70,115.7,69.9z"/>
		<path class="st7" d="M124.5,60.5c-0.4,0.5-1,1.2-1.6,1.9C123.5,61.7,124.1,61.1,124.5,60.5z"/>
		<path class="st7" d="M122.9,62.5c-0.1,0.1-0.2,0.3-0.3,0.4C122.7,62.7,122.8,62.6,122.9,62.5z"/>
		<path class="st7" d="M114.9,70.7c-0.1,0.1-0.2,0.2-0.3,0.3C114.7,70.9,114.8,70.8,114.9,70.7z"/>
		<path class="st7" d="M113.1,72.4c-0.1,0.1-0.2,0.2-0.3,0.3C112.9,72.6,113,72.5,113.1,72.4z"/>
		<path class="st7" d="M103.7,79.9c-0.1,0.1-0.2,0.2-0.3,0.2C103.5,80.1,103.6,80,103.7,79.9z"/>
		<path class="st7" d="M114,71.6c-0.1,0.1-0.2,0.2-0.3,0.3C113.8,71.8,113.9,71.7,114,71.6z"/>
		<path class="st7" d="M121.2,64.3c-0.1,0.1-0.2,0.2-0.3,0.3C121,64.6,121.1,64.5,121.2,64.3z"/>
		<path class="st7" d="M121.8,63.7c-0.1,0.1-0.2,0.2-0.3,0.3C121.6,63.9,121.7,63.8,121.8,63.7z"/>
		<path class="st7" d="M122.4,63c-0.1,0.1-0.2,0.2-0.3,0.4C122.1,63.3,122.3,63.2,122.4,63z"/>
		<path class="st7" d="M124.8,60.1c0.1-0.1,0.2-0.2,0.3-0.3l0,0C125,59.9,124.9,60,124.8,60.1z"/>
		<path class="st8" d="M120.9,64.7c-0.1,0.1-0.2,0.2-0.3,0.4C120.7,64.9,120.8,64.8,120.9,64.7z"/>
		<path class="st8" d="M104.4,79.4c-0.2,0.2-0.5,0.3-0.7,0.5C104,79.7,104.2,79.6,104.4,79.4z"/>
		<path class="st8" d="M121.5,64c-0.1,0.1-0.2,0.2-0.3,0.3C121.3,64.2,121.4,64.1,121.5,64z"/>
		<path class="st8" d="M120.2,65.4c-0.1,0.1-0.2,0.3-0.4,0.4C120,65.6,120.1,65.5,120.2,65.4z"/>
		<path class="st8" d="M106.5,77.9c-0.2,0.2-0.4,0.3-0.6,0.5C106.1,78.2,106.3,78,106.5,77.9z"/>
		<path class="st8" d="M122,63.4c-0.1,0.1-0.2,0.2-0.2,0.3C121.9,63.6,122,63.5,122,63.4z"/>
		<path class="st8" d="M105.5,78.6c-0.2,0.2-0.4,0.3-0.6,0.5C105,79,105.3,78.8,105.5,78.6z"/>
		<path class="st8" d="M102.3,80.9c0.4-0.2,0.7-0.5,1.1-0.7C103,80.4,102.7,80.6,102.3,80.9z"/>
		<path class="st8" d="M124.8,60.1L124.8,60.1L124.8,60.1z"/>
		<path class="st8" d="M122.5,62.8c-0.1,0.1-0.1,0.1-0.2,0.2C122.4,63,122.5,62.9,122.5,62.8z"/>
		<path class="st8" d="M122.9,62.4L122.9,62.4L122.9,62.4z"/>
		<path class="st8" d="M124.5,60.5L124.5,60.5L124.5,60.5z"/>
		<path class="st8" d="M116.3,69.4c-0.2,0.2-0.4,0.3-0.5,0.5C115.9,69.8,116.1,69.6,116.3,69.4z"/>
		<path class="st8" d="M114.6,71.1c-0.2,0.2-0.4,0.3-0.6,0.5C114.2,71.4,114.4,71.2,114.6,71.1z"/>
		<path class="st8" d="M117.1,68.6c-0.2,0.2-0.4,0.4-0.6,0.5C116.8,68.9,116.9,68.8,117.1,68.6z"/>
		<path class="st8" d="M111.8,73.5c-0.6,0.6-1.3,1.1-1.9,1.6C110.6,74.6,111.2,74.1,111.8,73.5z"/>
		<path class="st8" d="M112.8,72.7c-0.2,0.2-0.5,0.4-0.7,0.6C112.3,73.1,112.5,72.9,112.8,72.7z"/>
		<path class="st8" d="M119.6,66.1c-0.1,0.2-0.3,0.3-0.5,0.5C119.3,66.4,119.4,66.2,119.6,66.1z"/>
		<path class="st8" d="M113.7,71.9c-0.2,0.2-0.4,0.4-0.6,0.5C113.3,72.2,113.5,72,113.7,71.9z"/>
		<path class="st8" d="M115.4,70.2c-0.2,0.2-0.4,0.3-0.5,0.5C115.1,70.6,115.3,70.4,115.4,70.2z"/>
		<path class="st8" d="M118.9,66.8c-0.2,0.3-0.5,0.5-0.7,0.8C118.4,67.3,118.6,67.1,118.9,66.8z"/>
		<path class="st8" d="M107.6,77.1c-0.2,0.2-0.4,0.3-0.6,0.5C107.2,77.4,107.3,77.2,107.6,77.1z"/>
		<path class="st8" d="M109.6,75.4c-0.2,0.2-0.5,0.4-0.7,0.6C109.2,75.8,109.4,75.6,109.6,75.4z"/>
		<path class="st8" d="M108.6,76.3c-0.2,0.2-0.4,0.3-0.6,0.5C108.2,76.6,108.4,76.4,108.6,76.3z"/>
		<path class="st8" d="M118.1,67.6c-0.2,0.2-0.5,0.5-0.7,0.7C117.6,68.1,117.9,67.8,118.1,67.6z"/>
		<path class="st8" d="M107.4,76.1L107.4,76.1L107.4,76.1L107.4,76.1z"/>
		<g>
			<path class="st1" d="M106.2,77.2c-1.3,1.2-2.6,2.4-3.9,3.6L106.2,77.2L106.2,77.2z"/>
			<path class="st1" d="M107.4,76.1L107.4,76.1L107.4,76.1L107.4,76.1z"/>
			<path class="st8" d="M123.8,51.3l-0.5-2c-3.3,11.1-11.4,22.4-21,31.5c1.3-1.2,2.6-2.4,3.9-3.6l0,0l-3.9,3.6
				c1.2-0.8,2.2-1.6,3.2-2.3c0.7-0.5,1.4-1,2.1-1.6c1.8-1.4,3.5-2.9,5.2-4.4c1-0.9,1.9-1.8,2.9-2.7c0.8-0.8,1.6-1.6,2.4-2.4
				c1.3-1.4,2.6-2.8,3.9-4.2c0.7-0.8,2.2-2.3,3.1-3.6C124.9,56.9,124.5,54.1,123.8,51.3z M107.4,76.1L107.4,76.1L107.4,76.1
				L107.4,76.1z"/>
		</g>
	</g>
	<g>
		<path class="st1" d="M66.6,51.7c-8.2-0.8-15.1,6-14.3,14.3c0.6,6.1,5.5,11,11.6,11.6c8.2,0.8,15.1-6,14.3-14.3
			C77.6,57.2,72.7,52.3,66.6,51.7z"/>
		<path class="st3" d="M72,124.9c0.5-0.1,1.1-0.2,1.6-0.2c-1.3-3.4-6.4-16-7-17.6c-4.7,0.3-9.5-0.2-14.1-1.5c-0.3,0,0.2,0,0.1,0
			C65.6,110.7,70.4,122,72,124.9z"/>
	</g>
	<g>
		<path class="st1" d="M66.6,51.7c-8.2-0.8-15.1,6-14.3,14.3c0.6,6.1,5.5,11,11.6,11.6c8.2,0.8,15.1-6,14.3-14.3
			C77.6,57.2,72.7,52.3,66.6,51.7z"/>
		<path class="st3" d="M72.1,20.8l-1.8,8c0.4,0.3,0.7,0.6,1.1,1l8.8-6.4C77.6,22.2,74.9,21.3,72.1,20.8z"/>
	</g>
</g>
</svg>
