<?xml version="1.0" encoding="utf-8"?>
<!-- Generator: Adobe Illustrator 22.1.0, SVG Export Plug-In . SVG Version: 6.00 Build 0)  -->
<svg version="1.1" id="Layer_1" xmlns="http://www.w3.org/2000/svg" xmlns:xlink="http://www.w3.org/1999/xlink" x="0px" y="0px"
	 viewBox="0 0 512 512" style="enable-background:new 0 0 512 512;" xml:space="preserve">
<style type="text/css">
	.st0{fill:#010002;}
	.st1{fill:#010002;stroke:#FFFFFF;stroke-width:1.7748;stroke-linecap:round;stroke-linejoin:round;stroke-miterlimit:10;}
	.st2{fill:none;stroke:#000000;stroke-width:20;stroke-miterlimit:10;}
</style>
<g>
	<g>
		<path d="M455.1,242.7c-2.4-2.4-8.2-8.9-11.5-6.6l-67.5,66.4l-23.6-17.7c-4.4-1.8-6.2,0-8.5,2.4c-2,2-2.3,5.1-0.9,7.4
			c0.4,0.7,1,1.2,1.6,1.6l27.1,27.4c1.2,1.2,2.7,1.8,4.3,1.8s3.1-0.6,4.3-1.8l71.8-71.8C454.5,249.3,457.5,245,455.1,242.7z"/>
	</g>
</g>
<g>
	<g>
		<path class="st0" d="M469,410.6H40.1c-7.2,0-13-5.8-13-13V113.4c0-7.2,5.8-13,13-13H469c7.2,0,13,5.8,13,13v284.2
			C482,404.8,476.2,410.6,469,410.6z M53.1,384.6H456V126.4H53.1V384.6z"/>
	</g>
	<g>
		<path class="st0" d="M254.5,268.5c-2.5,0-5-0.7-7.2-2.2L32.9,124.3c-6-4-7.6-12-3.6-18c4-6,12-7.6,18-3.7L254.5,240l207.3-137.4
			c6-4,14-2.3,18,3.7c4,6,2.3,14-3.6,18L261.7,266.4C259.5,267.8,257,268.5,254.5,268.5z"/>
	</g>
	<g>
		<path class="st1" d="M40.1,397.6"/>
	</g>
</g>
<circle class="st2" cx="372.7" cy="301.1" r="55.3"/>
</svg>
