<?xml version="1.0" encoding="iso-8859-1"?>
<!-- Generator: Adobe Illustrator 19.0.0, SVG Export Plug-In . SVG Version: 6.00 Build 0)  -->
<svg version="1.1" id="Capa_1" xmlns="http://www.w3.org/2000/svg" xmlns:xlink="http://www.w3.org/1999/xlink" x="0px" y="0px"
	 viewBox="0 0 489.5 489.5" style="enable-background:new 0 0 489.5 489.5;" xml:space="preserve">
<g>
	<g>
		<path d="M392.15,451.4V38c0-20.9-17-38-38-38h-218.8c-20.9,0-38,17-38,38v413.5c0,20.9,17,38,38,38h218.8
			C375.05,489.4,392.15,472.4,392.15,451.4z M121.85,88.1h245.7v278.2h-245.7V88.1z M135.35,24.5h218.8c7.4,0,13.5,6,13.5,13.5v25.6
			h-245.8V38C121.85,30.5,127.95,24.5,135.35,24.5z M121.85,451.4v-60.7h245.7v60.7c0,7.4-6,13.5-13.5,13.5h-218.7
			C127.95,464.9,121.85,458.9,121.85,451.4z"/>
		<path d="M269.55,416.6h-49.7c-6.8,0-12.3,5.5-12.3,12.3s5.5,12.3,12.3,12.3h49.7c6.8,0,12.3-5.5,12.3-12.3
			C281.85,422.1,276.35,416.6,269.55,416.6z"/>
	</g>
</g>
<g>
</g>
<g>
</g>
<g>
</g>
<g>
</g>
<g>
</g>
<g>
</g>
<g>
</g>
<g>
</g>
<g>
</g>
<g>
</g>
<g>
</g>
<g>
</g>
<g>
</g>
<g>
</g>
<g>
</g>
</svg>
