<?xml version="1.0" encoding="utf-8"?>
<!-- Generator: Adobe Illustrator 15.0.2, SVG Export Plug-In . SVG Version: 6.00 Build 0)  -->
<!DOCTYPE svg PUBLIC "-//W3C//DTD SVG 1.1//EN" "http://www.w3.org/Graphics/SVG/1.1/DTD/svg11.dtd">
<svg version="1.1" id="Layer_1" xmlns="http://www.w3.org/2000/svg" xmlns:xlink="http://www.w3.org/1999/xlink" x="0px" y="0px"
	 width="48px" height="48px" viewBox="0 0 48 48" enable-background="new 0 0 48 48" xml:space="preserve">
<path fill-rule="evenodd" clip-rule="evenodd" fill="#010101" d="M7,12c-1.66,0-3,1.34-3,3v27c0,1.66,1.34,3,3,3h27
	c1.66,0,3-1.34,3-3V20.75l-5,4.87V38.5c0,0.83-0.67,1.5-1.5,1.5h-20C9.67,40,9,39.33,9,38.5v-20c0-0.83,0.67-1.5,1.5-1.5h11.25
	l4.87-5H7z"/>
<path fill-rule="evenodd" clip-rule="evenodd" fill="#010101" d="M36.391,7.11l-0.601,0.6L17.51,25.99l-0.6,0.6l0.18,0.17
	l-5.18,9.52l9.51-5.18l0.18,0.18l0.6-0.609L40.48,12.4l2.379-2.39l0.67-0.66l-0.09-0.09c0.711-1.28,0.531-2.91-0.529-3.98
	c-1.07-1.07-2.7-1.24-3.98-0.53l-0.09-0.09l-0.66,0.66L36.391,7.11z"/>
</svg>
