<?xml version="1.0" encoding="UTF-8" standalone="no"?>
<!-- Created with Inkscape (http://www.inkscape.org/) -->

<svg
   xmlns:dc="http://purl.org/dc/elements/1.1/"
   xmlns:cc="http://creativecommons.org/ns#"
   xmlns:rdf="http://www.w3.org/1999/02/22-rdf-syntax-ns#"
   xmlns:svg="http://www.w3.org/2000/svg"
   xmlns="http://www.w3.org/2000/svg"
   xmlns:sodipodi="http://sodipodi.sourceforge.net/DTD/sodipodi-0.dtd"
   xmlns:inkscape="http://www.inkscape.org/namespaces/inkscape"
   width="256"
   height="256"
   id="svg2"
   version="1.1"
   inkscape:version="0.48.2 r9819"
   sodipodi:docname="edit.svg">
  <defs
     id="defs4" />
  <sodipodi:namedview
     id="base"
     pagecolor="#ffffff"
     bordercolor="#666666"
     borderopacity="1.0"
     inkscape:pageopacity="0.0"
     inkscape:pageshadow="2"
     inkscape:zoom="3.26"
     inkscape:cx="116.2895"
     inkscape:cy="78.180603"
     inkscape:document-units="px"
     inkscape:current-layer="layer1"
     showgrid="true"
     inkscape:window-width="1852"
     inkscape:window-height="1156"
     inkscape:window-x="68"
     inkscape:window-y="0"
     inkscape:window-maximized="1"
     inkscape:snap-global="false"
     showguides="true"
     inkscape:guide-bbox="true">
    <inkscape:grid
       type="xygrid"
       id="grid2985"
       empspacing="16"
       visible="true"
       enabled="true"
       snapvisiblegridlinesonly="true"
       spacingx="1px"
       spacingy="1px"
       dotted="false" />
  </sodipodi:namedview>
  <metadata
     id="metadata7">
    <rdf:RDF>
      <cc:Work
         rdf:about="">
        <dc:format>image/svg+xml</dc:format>
        <dc:type
           rdf:resource="http://purl.org/dc/dcmitype/StillImage" />
        <dc:title />
      </cc:Work>
    </rdf:RDF>
  </metadata>
  <g
     inkscape:label="Layer 1"
     inkscape:groupmode="layer"
     id="layer1"
     transform="translate(0,-796.36217)">
    <path
       style="fill:#000000;fill-opacity:1;stroke:none"
       d="m 199.99152,831.68009 -19.31285,19.31286 32.06287,31.97448 19.26866,-19.26866 -32.01868,-32.01868 z m 7.22575,56.81161 -32.15126,-31.88609 -119.059104,119.0591 -15.666835,47.04469 -0.508233,1.127 0.596621,-0.2873 47.597126,-15.8657 119.191685,-119.1917 z m -30.62656,-28.24007 5.76734,5.76734 L 66.083177,982.29384 60.315838,976.5265 176.59071,860.25163 z m 10.18676,10.18675 5.78943,5.78944 L 76.292031,992.50269 70.502595,986.71325 186.77747,870.43838 z m 10.18675,10.18676 5.78944,5.78944 L 86.478788,1002.6894 80.689352,996.90001 196.96422,880.62514 z m -115.987606,125.31256 -27.886524,9.4576 -4.507806,-5.8779 8.860932,-26.80372 23.533398,23.22402 z"
       id="path3751"
       inkscape:connector-curvature="0" />
  </g>
</svg>
