<?xml version="1.0" encoding="UTF-8" standalone="no"?>
<!-- Generator: Adobe Illustrator 15.0.2, SVG Export Plug-In . SVG Version: 6.00 Build 0)  -->

<svg
   xmlns:dc="http://purl.org/dc/elements/1.1/"
   xmlns:cc="http://creativecommons.org/ns#"
   xmlns:rdf="http://www.w3.org/1999/02/22-rdf-syntax-ns#"
   xmlns:svg="http://www.w3.org/2000/svg"
   xmlns="http://www.w3.org/2000/svg"
   xmlns:sodipodi="http://sodipodi.sourceforge.net/DTD/sodipodi-0.dtd"
   xmlns:inkscape="http://www.inkscape.org/namespaces/inkscape"
   version="1.1"
   id="svg2"
   sodipodi:docname="Expand.svg"
   inkscape:version="0.48.2 r9819"
   x="0px"
   y="0px"
   width="256px"
   height="256px"
   viewBox="0 0 256 256"
   enable-background="new 0 0 256 256"
   xml:space="preserve"><metadata
   id="metadata2998"><rdf:RDF><cc:Work
       rdf:about=""><dc:format>image/svg+xml</dc:format><dc:type
         rdf:resource="http://purl.org/dc/dcmitype/StillImage" /></cc:Work></rdf:RDF></metadata><defs
   id="defs2996" />
<sodipodi:namedview
   borderopacity="1.0"
   bordercolor="#666666"
   id="base"
   pagecolor="#ffffff"
   inkscape:zoom="1.63"
   inkscape:cx="66.901718"
   inkscape:pageopacity="0.0"
   inkscape:pageshadow="2"
   inkscape:cy="94.670441"
   inkscape:document-units="px"
   inkscape:current-layer="svg2"
   showgrid="true"
   inkscape:window-width="1220"
   inkscape:window-height="756"
   inkscape:window-x="60"
   inkscape:window-y="0"
   inkscape:window-maximized="1"
   inkscape:snap-global="false"
   showguides="true"
   inkscape:guide-bbox="true">
	
		<inkscape:grid
   type="xygrid"
   id="grid2985"
   empspacing="16"
   visible="true"
   enabled="true"
   spacingy="1px"
   snapvisiblegridlinesonly="true"
   spacingx="1px"
   dotted="false">
		</inkscape:grid>
</sodipodi:namedview>
<path
   style="stroke:none"
   d="M 128 17 C 66.7 17 17 66.7 17 128 C 17 189.3 66.7 239 128 239 C 189.3 239 239 189.3 239 128 C 239 66.7 189.3 17 128 17 z M 128.21875 41.28125 C 175.99307 41.28125 214.71875 80.006925 214.71875 127.78125 C 214.71875 175.55557 175.99307 214.28125 128.21875 214.28125 C 80.444425 214.28125 41.71875 175.55557 41.71875 127.78125 C 41.71875 80.006925 80.444425 41.28125 128.21875 41.28125 z M 88 80 L 88 176 L 184 128 L 88 80 z "
   id="path2992" />

</svg>