<?xml version="1.0" encoding="UTF-8" standalone="no"?>
<!-- Created with Inkscape (http://www.inkscape.org/) -->

<svg
   xmlns:dc="http://purl.org/dc/elements/1.1/"
   xmlns:cc="http://creativecommons.org/ns#"
   xmlns:rdf="http://www.w3.org/1999/02/22-rdf-syntax-ns#"
   xmlns:svg="http://www.w3.org/2000/svg"
   xmlns="http://www.w3.org/2000/svg"
   xmlns:sodipodi="http://sodipodi.sourceforge.net/DTD/sodipodi-0.dtd"
   xmlns:inkscape="http://www.inkscape.org/namespaces/inkscape"
   width="64"
   height="64"
   id="svg2"
   version="1.1"
   inkscape:version="0.48.2 r9819"
   sodipodi:docname="read-unread.svg">
  <defs
     id="defs4" />
  <sodipodi:namedview
     id="base"
     pagecolor="#ffffff"
     bordercolor="#666666"
     borderopacity="1.0"
     inkscape:pageopacity="0.0"
     inkscape:pageshadow="2"
     inkscape:zoom="0.96447289"
     inkscape:cx="29.631001"
     inkscape:cy="24.04428"
     inkscape:document-units="px"
     inkscape:current-layer="layer1"
     showgrid="true"
     inkscape:window-width="1194"
     inkscape:window-height="960"
     inkscape:window-x="68"
     inkscape:window-y="0"
     inkscape:window-maximized="0"
     inkscape:snap-global="false">
    <inkscape:grid
       type="xygrid"
       id="grid3020"
       empspacing="4"
       visible="true"
       enabled="true"
       snapvisiblegridlinesonly="true"
       dotted="false" />
  </sodipodi:namedview>
  <metadata
     id="metadata7">
    <rdf:RDF>
      <cc:Work
         rdf:about="">
        <dc:format>image/svg+xml</dc:format>
        <dc:type
           rdf:resource="http://purl.org/dc/dcmitype/StillImage" />
        <dc:title></dc:title>
      </cc:Work>
    </rdf:RDF>
  </metadata>
  <g
     inkscape:label="Layer 1"
     inkscape:groupmode="layer"
     id="layer1"
     transform="translate(0,-988.36218)">
    <path
       style="fill:#000000;fill-opacity:1;stroke:none"
       d="M 32 19.6875 C 25.19752 19.6875 19.6875 25.19752 19.6875 32 C 19.6875 38.80248 25.19752 44.3125 32 44.3125 C 38.80248 44.3125 44.3125 38.80248 44.3125 32 C 44.3125 25.19752 38.80248 19.6875 32 19.6875 z M 32 21.65625 C 37.710415 21.65625 42.34375 26.289585 42.34375 32 C 42.34375 37.710415 37.710415 42.34375 32 42.34375 C 26.289585 42.34375 21.65625 37.710415 21.65625 32 C 21.65625 26.289585 26.289585 21.65625 32 21.65625 z M 30.84375 22.75 L 30.84375 31.5625 L 30.84375 32.84375 L 30.84375 33.5625 L 39.53125 33.5625 L 39.53125 31.5625 L 32.84375 31.5625 L 32.84375 22.75 L 30.84375 22.75 z "
       transform="translate(0,988.36218)"
       id="path3058" />
  </g>
</svg>
