<?xml version="1.0" encoding="UTF-8" standalone="no"?>
<!-- Created with Inkscape (http://www.inkscape.org/) -->

<svg
   xmlns:dc="http://purl.org/dc/elements/1.1/"
   xmlns:cc="http://creativecommons.org/ns#"
   xmlns:rdf="http://www.w3.org/1999/02/22-rdf-syntax-ns#"
   xmlns:svg="http://www.w3.org/2000/svg"
   xmlns="http://www.w3.org/2000/svg"
   xmlns:sodipodi="http://sodipodi.sourceforge.net/DTD/sodipodi-0.dtd"
   xmlns:inkscape="http://www.inkscape.org/namespaces/inkscape"
   width="256"
   height="256"
   id="svg2"
   version="1.1"
   inkscape:version="0.48.2 r9819"
   sodipodi:docname="reply-all.svg">
  <defs
     id="defs4" />
  <sodipodi:namedview
     id="base"
     pagecolor="#ffffff"
     bordercolor="#666666"
     borderopacity="1.0"
     inkscape:pageopacity="0.0"
     inkscape:pageshadow="2"
     inkscape:zoom="2.3091456"
     inkscape:cx="46.139969"
     inkscape:cy="128.09441"
     inkscape:document-units="px"
     inkscape:current-layer="layer1"
     showgrid="true"
     inkscape:window-width="1852"
     inkscape:window-height="1156"
     inkscape:window-x="68"
     inkscape:window-y="0"
     inkscape:window-maximized="0"
     inkscape:snap-global="true">
    <inkscape:grid
       type="xygrid"
       id="grid2985"
       empspacing="16"
       visible="true"
       enabled="true"
       snapvisiblegridlinesonly="true"
       spacingx="1px"
       spacingy="1px"
       dotted="false" />
  </sodipodi:namedview>
  <metadata
     id="metadata7">
    <rdf:RDF>
      <cc:Work
         rdf:about="">
        <dc:format>image/svg+xml</dc:format>
        <dc:type
           rdf:resource="http://purl.org/dc/dcmitype/StillImage" />
        <dc:title />
      </cc:Work>
    </rdf:RDF>
  </metadata>
  <g
     inkscape:label="Layer 1"
     inkscape:groupmode="layer"
     id="layer1"
     transform="translate(0,-796.36217)">
    <path
       style="fill:#000000;fill-opacity:1;stroke:none"
       d="m 128,852.36217 -64,64 64,64 0,-48 c 0,0 32,-0.875 48,15.125 7.3358,7.3358 11.28638,28.3116 13.4375,48.875 l 33.34375,0 c -2.33734,-26.07087 -8.15066,-55.88876 -22.125,-70.5 C 175.83739,899.91213 128,900.36217 128,900.36217 l 0,-48 z m -34.5,0.875 -64.46875,63.46875 64,64 L 93.125,953.48717 56,916.36217 93.40625,878.95592 93.5,853.23717 z m 40.3125,84.96875 0,7.9375 c 2.97893,1.63104 5.77156,3.5404 8.1875,5.84375 7.05876,6.72979 11.01438,25.49708 13.21875,44.375 l 28,0 c -2.20437,-18.87792 -6.15999,-37.64521 -13.21875,-44.375 -9.75027,-9.29586 -25.41629,-12.60496 -36.1875,-13.78125 z"
       id="path3831"
       inkscape:connector-curvature="0" />
  </g>
</svg>
