<?xml version="1.0" encoding="UTF-8" standalone="no"?>
<!-- Created with Inkscape (http://www.inkscape.org/) -->

<svg
   xmlns:dc="http://purl.org/dc/elements/1.1/"
   xmlns:cc="http://creativecommons.org/ns#"
   xmlns:rdf="http://www.w3.org/1999/02/22-rdf-syntax-ns#"
   xmlns:svg="http://www.w3.org/2000/svg"
   xmlns="http://www.w3.org/2000/svg"
   xmlns:sodipodi="http://sodipodi.sourceforge.net/DTD/sodipodi-0.dtd"
   xmlns:inkscape="http://www.inkscape.org/namespaces/inkscape"
   width="256"
   height="256"
   id="svg2"
   version="1.1"
   inkscape:version="0.48.2 r9819"
   sodipodi:docname="settings.svg">
  <defs
     id="defs4" />
  <sodipodi:namedview
     id="base"
     pagecolor="#ffffff"
     bordercolor="#666666"
     borderopacity="1.0"
     inkscape:pageopacity="0.0"
     inkscape:pageshadow="2"
     inkscape:zoom="2.3091456"
     inkscape:cx="98.845037"
     inkscape:cy="128"
     inkscape:document-units="px"
     inkscape:current-layer="layer1"
     showgrid="true"
     inkscape:window-width="1852"
     inkscape:window-height="1156"
     inkscape:window-x="68"
     inkscape:window-y="0"
     inkscape:window-maximized="1"
     inkscape:snap-global="false">
    <inkscape:grid
       type="xygrid"
       id="grid2985"
       empspacing="16"
       visible="true"
       enabled="true"
       snapvisiblegridlinesonly="true"
       spacingx="1px"
       spacingy="1px"
       dotted="false" />
  </sodipodi:namedview>
  <metadata
     id="metadata7">
    <rdf:RDF>
      <cc:Work
         rdf:about="">
        <dc:format>image/svg+xml</dc:format>
        <dc:type
           rdf:resource="http://purl.org/dc/dcmitype/StillImage" />
        <dc:title />
      </cc:Work>
    </rdf:RDF>
  </metadata>
  <g
     inkscape:label="Layer 1"
     inkscape:groupmode="layer"
     id="layer1"
     transform="translate(0,-796.36217)">
    <path
       style="fill:#000000;fill-opacity:1;stroke:none"
       d="M 128 32 C 122.54896 32 117.20301 32.470908 112 33.34375 L 112 58.5 C 104.14552 60.300326 96.78435 63.375052 90.15625 67.53125 L 72.375 49.75 C 63.634369 55.97521 55.97521 63.634369 49.75 72.375 L 67.53125 90.15625 C 63.375052 96.78435 60.300326 104.14552 58.5 112 L 33.34375 112 C 32.470908 117.20301 32 122.54896 32 128 C 32 133.45104 32.470908 138.79699 33.34375 144 L 58.5 144 C 60.300326 151.85448 63.375052 159.21565 67.53125 165.84375 L 49.75 183.625 C 55.97521 192.36563 63.634369 200.02479 72.375 206.25 L 90.15625 188.46875 C 96.78435 192.62495 104.14552 195.69967 112 197.5 L 112 222.65625 C 117.20301 223.52909 122.54896 224 128 224 C 133.45104 224 138.79699 223.52909 144 222.65625 L 144 197.5 C 151.85448 195.69967 159.21565 192.62495 165.84375 188.46875 L 183.625 206.25 C 192.36563 200.02479 200.02479 192.36563 206.25 183.625 L 188.46875 165.84375 C 192.62495 159.21565 195.69967 151.85448 197.5 144 L 222.65625 144 C 223.52909 138.79699 224 133.45104 224 128 C 224 122.54896 223.52909 117.20301 222.65625 112 L 197.5 112 C 195.69967 104.14552 192.62495 96.78435 188.46875 90.15625 L 206.25 72.375 C 200.02479 63.634369 192.36563 55.97521 183.625 49.75 L 165.84375 67.53125 C 159.21565 63.375052 151.85448 60.300326 144 58.5 L 144 33.34375 C 138.79699 32.470908 133.45104 32 128 32 z M 128 96 C 145.67311 96 160 110.32689 160 128 C 160 145.67311 145.67311 160 128 160 C 110.32689 160 96 145.67311 96 128 C 96 110.32689 110.32689 96 128 96 z "
       transform="translate(0,796.36217)"
       id="path2985" />
  </g>
</svg>
