<?xml version="1.0" encoding="UTF-8" standalone="no"?>
<!-- Generator: Adobe Illustrator 15.0.2, SVG Export Plug-In . SVG Version: 6.00 Build 0)  -->

<svg
   xmlns:dc="http://purl.org/dc/elements/1.1/"
   xmlns:cc="http://creativecommons.org/ns#"
   xmlns:rdf="http://www.w3.org/1999/02/22-rdf-syntax-ns#"
   xmlns:svg="http://www.w3.org/2000/svg"
   xmlns="http://www.w3.org/2000/svg"
   xmlns:sodipodi="http://sodipodi.sourceforge.net/DTD/sodipodi-0.dtd"
   xmlns:inkscape="http://www.inkscape.org/namespaces/inkscape"
   version="1.1"
   id="svg2"
   sodipodi:docname="settings.svg"
   inkscape:version="0.48.2 r9819"
   x="0px"
   y="0px"
   width="256px"
   height="256px"
   viewBox="0 0 256 256"
   enable-background="new 0 0 256 256"
   xml:space="preserve"><metadata
   id="metadata9"><rdf:RDF><cc:Work
       rdf:about=""><dc:format>image/svg+xml</dc:format><dc:type
         rdf:resource="http://purl.org/dc/dcmitype/StillImage" /></cc:Work></rdf:RDF></metadata><defs
   id="defs7" />
<sodipodi:namedview
   pagecolor="#ffffff"
   id="base"
   bordercolor="#666666"
   borderopacity="1.0"
   inkscape:pageopacity="0.0"
   inkscape:zoom="3.26"
   inkscape:pageshadow="2"
   inkscape:cx="116.2895"
   inkscape:cy="127.26036"
   inkscape:document-units="px"
   inkscape:current-layer="svg2"
   showgrid="true"
   inkscape:window-width="1852"
   inkscape:window-height="1156"
   inkscape:window-x="68"
   inkscape:window-y="0"
   inkscape:window-maximized="0"
   inkscape:snap-global="false"
   showguides="true"
   inkscape:guide-bbox="true">
	
		<inkscape:grid
   type="xygrid"
   id="grid2985"
   empspacing="16"
   visible="true"
   enabled="true"
   spacingy="1px"
   snapvisiblegridlinesonly="true"
   spacingx="1px"
   dotted="false">
		</inkscape:grid>
</sodipodi:namedview>
<path
   style="fill-rule:evenodd"
   d="M 127.90625 16.34375 C 124.34137 16.34375 120.77875 16.5575 116.96875 16.9375 L 108.125 41.8125 C 98.724995 44.0325 90.72 47.3575 82.5 52.4375 L 58.625 41.09375 C 52.695 45.94375 48.00625 50.6325 43.15625 56.5625 L 54.5 80.4375 C 49.42 88.6575 46.095 96.662501 43.875 106.0625 L 19 114.90625 C 18.24 122.52625 18.24 129.16225 19 136.78125 L 43.875 145.65625 C 46.095 155.05625 49.42 163.06125 54.5 171.28125 L 43.15625 195.15625 C 48.00625 201.08725 52.695 205.775 58.625 210.625 L 82.5 199.28125 C 90.72 204.36125 98.724995 207.656 108.125 209.875 L 116.96875 234.78125 C 124.58875 235.54125 131.22475 235.54125 138.84375 234.78125 L 147.71875 209.875 C 157.11875 207.657 165.12375 204.36125 173.34375 199.28125 L 197.21875 210.625 C 203.14975 205.775 207.8375 201.08725 212.6875 195.15625 L 201.34375 171.28125 C 206.42375 163.06125 209.7185 155.05625 211.9375 145.65625 L 236.84375 136.78125 C 237.60375 129.16225 237.60375 122.52625 236.84375 114.90625 L 211.9375 106.0625 C 209.7195 96.662501 206.42375 88.6575 201.34375 80.4375 L 212.6875 56.5625 C 207.8375 50.6325 203.14975 45.94375 197.21875 41.09375 L 173.34375 52.4375 C 165.12375 47.3575 157.11875 44.0325 147.71875 41.8125 L 138.84375 16.9375 C 135.03425 16.5575 131.47113 16.34375 127.90625 16.34375 z M 127.90625 85.3125 C 150.27625 85.3125 168.4375 103.47375 168.4375 125.84375 C 168.4375 148.21375 150.27625 166.375 127.90625 166.375 C 105.53625 166.375 87.375 148.21375 87.375 125.84375 C 87.375 103.47375 105.53625 85.3125 127.90625 85.3125 z "
   id="path5" />
</svg>