<?xml version="1.0" encoding="utf-8"?>
<!-- Generator: Adobe Illustrator 15.0.2, SVG Export Plug-In . SVG Version: 6.00 Build 0)  -->
<!DOCTYPE svg PUBLIC "-//W3C//DTD SVG 1.1//EN" "http://www.w3.org/Graphics/SVG/1.1/DTD/svg11.dtd">
<svg version="1.1"
	 id="svg2" sodipodi:docname="edit.svg" inkscape:version="0.48.2 r9819" xmlns:inkscape="http://www.inkscape.org/namespaces/inkscape" xmlns:sodipodi="http://sodipodi.sourceforge.net/DTD/sodipodi-0.dtd" xmlns:rdf="http://www.w3.org/1999/02/22-rdf-syntax-ns#" xmlns:svg="http://www.w3.org/2000/svg" xmlns:cc="http://creativecommons.org/ns#" xmlns:dc="http://purl.org/dc/elements/1.1/"
	 xmlns="http://www.w3.org/2000/svg" xmlns:xlink="http://www.w3.org/1999/xlink" x="0px" y="0px" width="256px" height="256px"
	 viewBox="0 0 256 256" enable-background="new 0 0 256 256" xml:space="preserve">
<sodipodi:namedview  pagecolor="#ffffff" id="base" bordercolor="#666666" borderopacity="1.0" inkscape:pageopacity="0.0" inkscape:zoom="3.26" inkscape:pageshadow="2" inkscape:cx="116.2895" inkscape:cy="78.180603" inkscape:document-units="px" inkscape:current-layer="layer1" showgrid="true" inkscape:window-width="1852" inkscape:window-height="1156" inkscape:window-x="68" inkscape:window-y="0" inkscape:window-maximized="1" inkscape:snap-global="false" showguides="true" inkscape:guide-bbox="true">
	
		<inkscape:grid  type="xygrid" id="grid2985" empspacing="16" visible="true" enabled="true" spacingy="1px" snapvisiblegridlinesonly="true" spacingx="1px" dotted="false">
		</inkscape:grid>
</sodipodi:namedview>
<path fill-rule="evenodd" clip-rule="evenodd" d="M127,87.47c22.37,0,40.529,18.16,40.529,40.53S149.37,168.529,127,168.529
	S86.47,150.37,86.47,128S104.63,87.47,127,87.47z M116.06,19.07c7.62-0.76,14.26-0.76,21.879,0l8.86,24.9
	c9.4,2.22,17.4,5.53,25.62,10.61l23.87-11.34c5.931,4.85,10.62,9.54,15.47,15.47l-11.34,23.87c5.08,8.22,8.391,16.22,10.609,25.62
	l24.9,8.86c0.76,7.62,0.76,14.26,0,21.879l-24.9,8.86c-2.219,9.4-5.529,17.4-10.609,25.62l11.34,23.87
	c-4.85,5.931-9.539,10.62-15.47,15.47l-23.87-11.34c-8.22,5.08-16.22,8.391-25.62,10.609l-8.86,24.9
	c-7.619,0.76-14.259,0.76-21.879,0l-8.86-24.9c-9.4-2.219-17.4-5.529-25.62-10.609l-23.87,11.34c-5.93-4.85-10.62-9.539-15.47-15.47
	l11.34-23.87c-5.08-8.22-8.39-16.22-10.61-25.62l-24.9-8.86c-0.76-7.619-0.76-14.259,0-21.879l24.9-8.86
	c2.22-9.4,5.53-17.4,10.61-25.62L42.24,58.71c4.85-5.93,9.54-10.62,15.47-15.47l23.87,11.34c8.22-5.08,16.22-8.39,25.62-10.61
	L116.06,19.07z"/>
</svg>
