<?xml version="1.0" encoding="utf-8"?>
<!-- Generator: Adobe Illustrator 15.0.2, SVG Export Plug-In . SVG Version: 6.00 Build 0)  -->
<!DOCTYPE svg PUBLIC "-//W3C//DTD SVG 1.1//EN" "http://www.w3.org/Graphics/SVG/1.1/DTD/svg11.dtd">
<svg version="1.1" id="Layer_1" xmlns="http://www.w3.org/2000/svg" xmlns:xlink="http://www.w3.org/1999/xlink" x="0px" y="0px"
	 width="48px" height="48px" viewBox="0 0 48 48" enable-background="new 0 0 48 48" xml:space="preserve">
<path fill-rule="evenodd" clip-rule="evenodd" fill="#010101" d="M20.88,10.005L21,9.895v-1.58c0.141-1.04,0.68-1.31,1.96-1.31h2.08
	c1.28,0,1.819,0.27,1.96,1.31v1.21v0.48h2v-0.84c0-2.36-0.88-3.75-3.15-4.16h-3.31c-2.511,0.2-3.54,1.32-3.54,3.84v1.16H20.88z"/>
<path fill-rule="evenodd" clip-rule="evenodd" fill="#010101" d="M13.62,15.005l2.319,0.38c0.621,0,1.121,0.5,1.121,1.12L18,39.944
	c0,0.621-1.25,0.871-1.88,0.871c-0.62,0-1.74-0.881-1.74-1.5l-1.88-23.19C12.5,15.505,13,15.005,13.62,15.005z M11.64,41.146
	c0.69,2.229,6.01,4.119,12.36,4.229c6.35-0.11,11.67-2,12.359-4.229h0.201l3.129-29.701c0.15-0.32,1.19-2.43,1.19-2.77
	c0-3.34-7.351-6.05-16.88-6.05S7.12,5.335,7.12,8.675c0,0.34,1.17,2.45,1.32,2.77l3.12,29.701H11.64z M23.58,42.005
	c-0.67-0.1-1.58-0.43-1.58-0.939v-23.94c0-0.62,0.5-1.12,1.12-1.12H24h0.88c0.62,0,1.12,0.5,1.12,1.12v23.94
	c0,0.51-0.91,0.84-1.58,0.939H23.58z M24,12.625c-8.52,0-15.06-1.94-15.06-4.45c0-2.51,6.541-4.54,15.06-4.54
	s15.061,2.03,15.061,4.54C39.061,10.685,32.52,12.625,24,12.625z M34.5,15.005c0.62,0,1.12,0.5,1.12,1.12l-1.87,23.19
	c0,0.619-1.13,1.5-1.75,1.5s-1.88-0.25-1.88-0.871l0.94-23.439c0-0.62,0.51-1.12,1.129-1.12L34.5,15.005z"/>
</svg>
