<?xml version="1.0" encoding="utf-8"?>
<svg version="1.1" xmlns="http://www.w3.org/2000/svg" xmlns:xlink="http://www.w3.org/1999/xlink" width="32" height="32" viewBox="0 0 32 32">
    <path d="M16 2.667c-7.333 0-13.333 6-13.333 13.333s6 13.333 13.333 13.333 13.333-6 13.333-13.333-6-13.333-13.333-13.333zM22.533 18.4c-0.667 0.933-1.867 1.467-3.067 1.467-0.667 0-1.733-0.267-2.133-0.533-0.533-0.267-1.467-0.667-2.133-1.467-0.533-0.533-0.933-0.667-1.467-0.933s-0.667-0.267-1.2-0.267c-0.533 0-0.933 0.267-1.467 0.667-0.533 0.533-0.533 0.933-0.533 1.733l-2.4-0.267c0-1.467 0.533-2.667 1.2-3.6s1.867-1.467 3.2-1.467c0.667 0 1.733 0.267 2.133 0.533 0.533 0.267 1.467 0.667 2.133 1.467 0.533 0.533 0.933 0.667 1.467 0.933s0.667 0.267 1.2 0.267c0.533 0 0.933-0.267 1.467-0.667 0.533-0.533 0.667-1.2 0.667-1.867l2.133 0.533c0 1.2-0.533 2.4-1.2 3.467z"></path>
</svg>
