<?xml version="1.0" encoding="utf-8"?>
<!-- Generator: Adobe Illustrator 19.1.0, SVG Export Plug-In . SVG Version: 6.00 Build 0)  -->
<svg version="1.1" id="Layer_1" xmlns="http://www.w3.org/2000/svg" xmlns:xlink="http://www.w3.org/1999/xlink" x="0px" y="0px"
	 viewBox="-289 381 32 32" style="enable-background:new -289 381 32 32;" xml:space="preserve">
<path d="M-281.3,391.7h15.3c2.9,0,5.3,2.4,5.3,5.3s-2.4,5.3-5.3,5.3h-16.7c-1.8,0-3.3-1.5-3.3-3.3s1.5-3.3,3.3-3.3h14
	c0.7,0,1.3,0.6,1.3,1.3c0,0.7-0.6,1.3-1.3,1.3h-12.7v2h12.7c1.8,0,3.3-1.5,3.3-3.3s-1.5-3.3-3.3-3.3h-14c-2.9,0-5.3,2.4-5.3,5.3
	s2.4,5.3,5.3,5.3h16.7c4.1,0,7.3-3.3,7.3-7.3c0-4.1-3.3-7.3-7.3-7.3h-15.3V391.7z"/>
</svg>
