<svg version="1.1" xmlns="http://www.w3.org/2000/svg" xmlns:xlink="http://www.w3.org/1999/xlink" viewBox="0 0 32 32">
    <path d="M2.666 16.666c0-4.054 3.28-7.334 7.334-7.334h14c2.946 0 5.334 2.386 5.334 5.334s-2.386 5.334-5.334 5.334h-11.334c-1.84 0-3.334-1.494-3.334-3.334s1.494-3.334 3.334-3.334h10v2.666h-10.12c-0.734 0-0.734 1.334 0 1.334h11.454c1.466 0 2.666-1.2 2.666-2.666s-1.2-2.666-2.666-2.666h-14c-2.574 0-4.666 2.094-4.666 4.666s2.094 4.666 4.666 4.666h12.666v2.666h-12.666c-4.054 0-7.334-3.28-7.334-7.334z"></path>
</svg>
