<?xml version="1.0" encoding="UTF-8"?>
<svg width="36px" height="36px" viewBox="0 0 36 36" version="1.1" xmlns="http://www.w3.org/2000/svg" xmlns:xlink="http://www.w3.org/1999/xlink">
    <!-- Generator: sketchtool 42 (36781) - http://www.bohemiancoding.com/sketch -->
    <title>F5E16F0E-7328-4761-9803-009C320660B1</title>
    <desc>Created with sketchtool.</desc>
    <defs></defs>
    <g id="Page-1" stroke="none" stroke-width="1" fill="none" fill-rule="evenodd">
        <g id="Icons" transform="translate(-98.000000, -778.000000)">
            <g id="Nav-and-Controls" transform="translate(92.000000, 30.000000)">
                <g id="ic_check_box_black_24px" transform="translate(0.000000, 742.000000)">
                    <g id="Group">
                        <polygon id="Shape" points="0 0 48 0 48 48 0 48"></polygon>
                        <path d="M38,6 L10,6 C7.78,6 6,7.8 6,10 L6,38 C6,40.2 7.78,42 10,42 L38,42 C40.22,42 42,40.2 42,38 L42,10 C42,7.8 40.22,6 38,6 Z M20,34 L10,24 L12.82,21.18 L20,28.34 L35.18,13.16 L38,16 L20,34 Z" id="Shape" fill="#000000" fill-rule="nonzero"></path>
                    </g>
                </g>
            </g>
        </g>
    </g>
</svg>