<?xml version="1.0" encoding="utf-8"?>
<!-- Generated by IcoMoon.io -->
<!DOCTYPE svg PUBLIC "-//W3C//DTD SVG 1.1//EN" "http://www.w3.org/Graphics/SVG/1.1/DTD/svg11.dtd">
<svg version="1.1" xmlns="http://www.w3.org/2000/svg" xmlns:xlink="http://www.w3.org/1999/xlink" width="32" height="32" viewBox="0 0 32 32">
<path d="M25.4 4h-1.4v-2.6h-2.6v2.6h-10.6v-2.6h-2.6v2.6h-1.4c-1.4 0-2.6 1.2-2.6 2.6v18.6c0 1.4 1.2 2.6 2.6 2.6h18.6c1.4 0 2.6-1.2 2.6-2.6v-18.6c0-1.4-1.2-2.6-2.6-2.6v0zM25.4 25.4h-18.6v-14.6h18.6v14.6z"></path>
<path d="M22.4 16.2c0 1.2-0.4 2.2-1 3s-1.6 1.2-2.6 1.2c-0.6 0-1.4-0.2-1.8-0.4s-1.2-0.6-1.8-1.2c-0.4-0.4-0.8-0.6-1.2-0.8s-0.6-0.2-1-0.2c-0.4 0-0.8 0.2-1.2 0.6s-0.4 0.8-0.4 1.4l-2-0.2c0-1.2 0.4-2.2 1-3s1.6-1.2 2.6-1.2c0.6 0 1.4 0.2 1.8 0.4s1.2 0.6 1.8 1.2c0.4 0.4 0.8 0.6 1.2 0.8s0.6 0.2 1 0.2c0.4 0 0.8-0.2 1.2-0.6s0.6-1 0.6-1.6l1.8 0.4z"></path>
</svg>
