<?xml version="1.0" encoding="UTF-8"?>
<svg width="36px" height="36px" viewBox="0 0 36 36" version="1.1" xmlns="http://www.w3.org/2000/svg" xmlns:xlink="http://www.w3.org/1999/xlink">
    <!-- Generator: sketchtool 42 (36781) - http://www.bohemiancoding.com/sketch -->
    <title>A2364357-1294-4094-9549-49756820871B</title>
    <desc>Created with sketchtool.</desc>
    <defs></defs>
    <g id="Page-1" stroke="none" stroke-width="1" fill="none" fill-rule="evenodd">
        <g id="Icons" transform="translate(-98.000000, -852.000000)">
            <g id="Nav-and-Controls" transform="translate(92.000000, 30.000000)">
                <g id="ic_check_box_outline_blank_black_24px" transform="translate(0.000000, 816.000000)">
                    <g id="Group">
                        <path d="M38,10 L38,38 L10,38 L10,10 L38,10 L38,10 Z M38,6 L10,6 C7.8,6 6,7.8 6,10 L6,38 C6,40.2 7.8,42 10,42 L38,42 C40.2,42 42,40.2 42,38 L42,10 C42,7.8 40.2,6 38,6 Z" id="Shape" fill="#000000" fill-rule="nonzero"></path>
                        <polygon id="Shape" points="0 0 48 0 48 48 0 48"></polygon>
                    </g>
                </g>
            </g>
        </g>
    </g>
</svg>