<?xml version="1.0" encoding="utf-8"?>
<!-- Generated by IcoMoon.io -->
<!DOCTYPE svg PUBLIC "-//W3C//DTD SVG 1.1//EN" "http://www.w3.org/Graphics/SVG/1.1/DTD/svg11.dtd">
<svg version="1.1" xmlns="http://www.w3.org/2000/svg" xmlns:xlink="http://www.w3.org/1999/xlink" width="32" height="32" viewBox="0 0 32 32">
<path d="M22.040 14.746l-1.414-1.414-6.506 6.506-2.826-2.826-1.414 1.414 4.24 4.24 7.92-7.92zM25.334 4h-1.334v-2.666h-2.666v2.666h-10.666v-2.666h-2.666v2.666h-1.334c-1.48 0-2.654 1.2-2.654 2.666l-0.014 18.666c0 1.466 1.186 2.666 2.666 2.666h18.666c1.466 0 2.666-1.2 2.666-2.666v-18.666c0-1.466-1.2-2.666-2.666-2.666zM25.334 25.334h-18.666v-14.666h18.666v14.666z"></path>
</svg>
