<svg version="1.1" xmlns="http://www.w3.org/2000/svg" xmlns:xlink="http://www.w3.org/1999/xlink" viewBox="0 0 32 32" fill="#ffffff">
<path d="M4 5.334v-4h2.666v4h4v2.666h-4v4h-2.666v-4h-4v-2.666h4zM8 13.334v-4h4v-4h9.334l2.44 2.666h4.226c1.466 0 2.666 1.2 2.666 2.666v16c0 1.466-1.2 2.666-2.666 2.666h-21.334c-1.466 0-2.666-1.2-2.666-2.666v-13.334h4zM17.334 25.334c3.68 0 6.666-2.986 6.666-6.666s-2.986-6.666-6.666-6.666-6.666 2.986-6.666 6.666 2.986 6.666 6.666 6.666zM13.066 18.666c0 2.36 1.906 4.266 4.266 4.266s4.266-1.906 4.266-4.266-1.906-4.266-4.266-4.266-4.266 1.906-4.266 4.266z"></path>
</svg>
