<svg version="1.1" xmlns="http://www.w3.org/2000/svg" viewBox="0 0 32 32">
    <path d="M7 19.6v-7.2h2.2c1 0 1.6 0.2 2.2 0.8s0.8 1.4 0.8 2.2v1c0 1-0.2 1.6-0.8 2.2s-1.4 0.8-2.2 0.8h-2.2zM8 13.2v5.6h1.2c0.6 0 1.2-0.2 1.6-0.6s0.6-1 0.6-1.6v-1c0-0.6-0.2-1.2-0.6-1.6s-0.8-0.6-1.6-0.6h-1.2z"></path>
    <path d="M19 16.6c0 0.8-0.2 1.6-0.8 2.2s-1.2 0.8-2 0.8c-0.8 0-1.6-0.2-2-0.8-0.6-0.6-0.8-1.2-0.8-2.2v-1.2c0-0.8 0.2-1.6 0.8-2.2s1.2-0.8 2-0.8c0.8 0 1.6 0.2 2 0.8 0.6 0.6 0.8 1.2 0.8 2.2v1.2zM18 15.4c0-0.6-0.2-1.2-0.6-1.6s-0.8-0.6-1.4-0.6c-0.6 0-1 0.2-1.4 0.6s-0.4 1-0.4 1.6v1.2c0 0.6 0.2 1.2 0.4 1.6 0.4 0.4 0.8 0.6 1.4 0.6s1-0.2 1.4-0.6c0.4-0.4 0.6-1 0.6-1.6v-1.2z"></path>
    <path d="M25.4 17.2v0c0 0.6-0.2 1.2-0.6 1.8-0.4 0.4-1.2 0.6-2 0.6s-1.4-0.2-2-0.8c-0.6-0.6-0.8-1.2-0.8-2.2v-1.2c0-0.8 0.2-1.6 0.8-2.2s1.2-0.8 2-0.8c0.8 0 1.4 0.2 2 0.6 0.4 0.4 0.8 1 0.6 1.8v0h-1c0-0.4-0.2-0.8-0.4-1.2s-0.8-0.4-1.2-0.4c-0.6 0-1 0.2-1.2 0.6-0.4 0.4-0.4 1-0.4 1.6v1.2c0 0.6 0.2 1.2 0.4 1.6 0.4 0.4 0.8 0.6 1.2 0.6 0.6 0 1-0.2 1.2-0.4s0.4-0.6 0.4-1.2h1z"></path>
</svg>