<svg version="1.1" xmlns="http://www.w3.org/2000/svg" viewBox="0 0 32 32">
    <path d="M12.414 22.666l3.254-3.254 3.254 3.254 1.414-1.414-3.254-3.254 3.254-3.254-1.414-1.414-3.254 3.254-3.254-3.254-1.414 1.414 3.254 3.254-3.254 3.254 1.414 1.414zM25.334 4h-1.334v-2.666h-2.666v2.666h-10.666v-2.666h-2.666v2.666h-1.334c-1.48 0-2.654 1.2-2.654 2.666l-0.014 18.666c0 1.466 1.186 2.666 2.666 2.666h18.666c1.466 0 2.666-1.2 2.666-2.666v-18.666c0-1.466-1.2-2.666-2.666-2.666zM25.334 25.334h-18.666v-14.666h18.666v14.666z"></path>
</svg>
