<svg version="1.1" xmlns="http://www.w3.org/2000/svg" xmlns:xlink="http://www.w3.org/1999/xlink" viewBox="0 0 32 32">
    <path d="M16 2.666c-7.36 0-13.334 5.974-13.334 13.334s5.974 13.334 13.334 13.334 13.334-5.974 13.334-13.334-5.974-13.334-13.334-13.334zM16 26.666c-5.894 0-10.666-4.774-10.666-10.666 0-2.466 0.84-4.734 2.254-6.534l14.946 14.946c-1.8 1.414-4.066 2.254-6.534 2.254zM24.414 22.534l-14.946-14.946c1.8-1.414 4.066-2.254 6.534-2.254 5.894 0 10.666 4.774 10.666 10.666 0 2.466-0.84 4.734-2.254 6.534z"></path>
</svg>
