<svg version="1.1" xmlns="http://www.w3.org/2000/svg" xmlns:xlink="http://www.w3.org/1999/xlink" width="32" height="32" viewBox="0 0 32 32">
    <path d="M25.334 4h-5.574c-0.56-1.546-2.026-2.666-3.76-2.666s-3.2 1.12-3.76 2.666h-5.574c-1.466 0-2.666 1.2-2.666 2.666v18.666c0 1.466 1.2 2.666 2.666 2.666h18.666c1.466 0 2.666-1.2 2.666-2.666v-18.666c0-1.466-1.2-2.666-2.666-2.666zM16 4c0.734 0 1.334 0.6 1.334 1.334s-0.6 1.334-1.334 1.334-1.334-0.6-1.334-1.334 0.6-1.334 1.334-1.334zM13.334 22.666l-5.334-5.334 1.88-1.88 3.454 3.44 8.786-8.786 1.88 1.894-10.666 10.666z"></path>
</svg>