<svg version="1.1" xmlns="http://www.w3.org/2000/svg" viewBox="0 0 32 32">
    <path d="M10.827 12.697h9.536c1.808 0 3.303 1.496 3.303 3.303s-1.496 3.303-3.303 3.303h-10.409c-1.122 0-2.057-0.935-2.057-2.057s0.935-2.057 2.057-2.057h8.726c0.436 0 0.81 0.374 0.81 0.81s-0.374 0.81-0.81 0.81h-7.916v1.247h7.916c1.122 0 2.057-0.935 2.057-2.057s-0.935-2.057-2.057-2.057h-8.726c-1.808 0-3.303 1.496-3.303 3.303s1.496 3.303 3.303 3.303h10.409c2.556 0 4.55-2.057 4.55-4.55 0-2.556-2.057-4.55-4.55-4.55h-9.536v1.246z"></path>
</svg>