<svg version="1.1"
	xmlns="http://www.w3.org/2000/svg"
	xmlns:xlink="http://www.w3.org/1999/xlink" width="32" height="32" viewBox="0 0 32 32">
	<path d="M22 8v15.334c0 2.946-2.386 5.334-5.334 5.334s-5.334-2.386-5.334-5.334v-16.666c0-1.84 1.494-3.334 3.334-3.334s3.334 1.494 3.334 3.334v14c0 0.734-0.6 1.334-1.334 1.334s-1.334-0.6-1.334-1.334v-12.666h-2v12.666c0 1.84 1.494 3.334 3.334 3.334s3.334-1.494 3.334-3.334v-14c0-2.946-2.386-5.334-5.334-5.334s-5.334 2.386-5.334 5.334v16.666c0 4.054 3.28 7.334 7.334 7.334s7.334-3.28 7.334-7.334v-15.334h-2z"></path>
</svg>
