<svg version="1.1" xmlns="http://www.w3.org/2000/svg" viewBox="0 0 32 32">
    <path d="M16 6.417c-5.271 0-9.583 4.313-9.583 9.583s4.313 9.583 9.583 9.583 9.583-4.313 9.583-9.583-4.313-9.583-9.583-9.583zM20.695 17.725c-0.48 0.671-1.342 1.055-2.204 1.055-0.48 0-1.245-0.192-1.533-0.383-0.383-0.192-1.055-0.48-1.533-1.055-0.383-0.383-0.671-0.48-1.054-0.671s-0.479-0.192-0.863-0.192c-0.383 0-0.671 0.192-1.055 0.48-0.383 0.383-0.383 0.671-0.383 1.245l-1.725-0.192c0-1.055 0.383-1.917 0.863-2.588s1.342-1.054 2.3-1.054c0.479 0 1.245 0.192 1.533 0.383 0.383 0.192 1.054 0.479 1.533 1.055 0.383 0.383 0.671 0.48 1.055 0.671s0.48 0.192 0.863 0.192c0.383 0 0.671-0.192 1.055-0.48 0.383-0.383 0.48-0.863 0.48-1.342l1.533 0.383c0 0.863-0.383 1.725-0.863 2.492z"></path>
</svg>
