<svg version="1.1" xmlns="http://www.w3.org/2000/svg" width="32" height="32" viewBox="0 0 32 32">
<path d="M16 7.867c1.547 0 2.8 1.253 2.8 2.8s-1.253 2.8-2.8 2.8-2.8-1.253-2.8-2.8 1.253-2.8 2.8-2.8zM16 19.867c3.96 0 8.133 1.947 8.133 2.8v1.467h-16.267v-1.467c0-0.853 4.173-2.8 8.133-2.8zM16 5.333c-2.947 0-5.333 2.387-5.333 5.333s2.387 5.333 5.333 5.333 5.333-2.387 5.333-5.333-2.387-5.333-5.333-5.333zM16 17.333c-3.56 0-10.667 1.787-10.667 5.333v4h21.333v-4c0-3.547-7.107-5.333-10.667-5.333z"></path>
</svg>
