<svg version="1.1" xmlns="http://www.w3.org/2000/svg" viewBox="0 0 32 32">
    <path d="M29.334 4h-26.666c-1.466 0-2.666 1.2-2.666 2.666v18.666c0 1.466 1.2 2.666 2.666 2.666h26.666c1.466 0 2.654-1.2 2.654-2.666l0.014-18.666c0-1.466-1.2-2.666-2.666-2.666zM10.666 8c2.214 0 4 1.786 4 4s-1.786 4-4 4c-2.214 0-4-1.786-4-4s1.786-4 4-4zM18.666 24h-16v-1.334c0-2.666 5.334-4.134 8-4.134s8 1.466 8 4.134v1.334zM18.666 12.568v-1.522h10.658v1.522h-10.658zM18.666 15.614v-1.522h10.658v1.522h-10.658zM18.666 8h10.658v1.522h-10.658v-1.522z"></path>
</svg>