<svg version="1.1" xmlns="http://www.w3.org/2000/svg" viewBox="0 0 32 32">
    <path d="M11.8 16.2h-3.2v2.6h3.8v0.8h-4.8v-7.2h4.6v0.8h-3.8v2.2h3.2v0.8z"></path>
    <path d="M14.4 16.6v2.8h-1v-7.2h2.8c0.8 0 1.4 0.2 1.8 0.6s0.6 1 0.6 1.6c0 0.6-0.2 1.2-0.6 1.6s-1 0.6-1.8 0.6h-1.8zM14.4 15.8h1.8c0.4 0 0.8-0.2 1-0.4s0.4-0.6 0.4-1c0-0.4-0.2-0.8-0.4-1s-0.6-0.4-1-0.4h-1.8v2.8z"></path>
    <path d="M23.8 17.8c0-0.4-0.2-0.6-0.4-0.8s-0.6-0.4-1.2-0.6c-0.8-0.2-1.4-0.4-1.8-0.8s-0.6-0.8-0.6-1.4c0-0.6 0.2-1 0.6-1.4s1-0.6 1.8-0.6c0.8 0 1.4 0.2 1.8 0.6s0.6 1 0.6 1.4v0h-1c0-0.4-0.2-0.8-0.4-1s-0.6-0.4-1.2-0.4c-0.4 0-0.8 0.2-1.2 0.4-0.2 0.2-0.4 0.4-0.4 0.8s0.2 0.6 0.4 0.8c0.2 0.2 0.8 0.4 1.4 0.6 0.8 0.2 1.4 0.4 1.8 0.8s0.6 0.8 0.6 1.4c0 0.6-0.2 1-0.8 1.4-0.4 0.4-1 0.6-1.8 0.6s-1.4-0.2-1.8-0.6c-0.6-0.4-0.8-1-0.8-1.6v0h1c0 0.4 0.2 0.8 0.6 1s0.8 0.4 1.2 0.4c0.4 0 0.8-0.2 1.2-0.4 0.2 0 0.4-0.4 0.4-0.6z"></path>
</svg>