<svg version="1.1" xmlns="http://www.w3.org/2000/svg" viewBox="0 0 32 32">
    <path d="M29.334 4c1.466 0 2.666 1.2 2.666 2.666l-0.014 18.666c0 1.466-1.186 2.666-2.654 2.666h-26.666c-1.466 0-2.666-1.2-2.666-2.666v-18.666c0-1.466 1.2-2.666 2.666-2.666h26.666zM20.848 14.606c2.012 0 3.624-1.624 3.624-3.636s-1.612-3.636-3.624-3.636c-2.012 0-3.636 1.624-3.636 3.636s1.624 3.636 3.636 3.636zM11.152 14.606c2.012 0 3.624-1.624 3.624-3.636s-1.612-3.636-3.624-3.636c-2.012 0-3.636 1.624-3.636 3.636s1.624 3.636 3.636 3.636zM11.152 17.030c-2.824 0-8.484 1.418-8.484 4.242v3.030h16.97v-3.030c0-2.824-5.66-4.242-8.484-4.242zM20.848 17.030c-0.352 0-0.752 0.024-1.176 0.060 1.406 1.018 2.388 2.388 2.388 4.182v3.030h7.272v-3.030c0-2.824-5.66-4.242-8.484-4.242z"></path>
</svg>