<svg version="1.1" xmlns="http://www.w3.org/2000/svg" viewBox="0 0 32 32">
    <path d="M21.334 14.666c2.214 0 3.986-1.786 3.986-4s-1.774-4-3.986-4c-2.214 0-4 1.786-4 4s1.786 4 4 4zM10.666 14.666c2.214 0 3.986-1.786 3.986-4s-1.774-4-3.986-4c-2.214 0-4 1.786-4 4s1.786 4 4 4zM10.666 17.334c-3.106 0-9.334 1.56-9.334 4.666v3.334h18.666v-3.334c0-3.106-6.226-4.666-9.334-4.666zM21.334 17.334c-0.386 0-0.826 0.026-1.294 0.066 1.546 1.12 2.626 2.626 2.626 4.6v3.334h8v-3.334c0-3.106-6.226-4.666-9.334-4.666z"></path>
</svg>
