<svg version="1.1" xmlns="http://www.w3.org/2000/svg" viewBox="0 0 32 32">
    <path d="M18.904 15.274c1.205 0 2.171-0.973 2.171-2.178s-0.965-2.178-2.171-2.178c-1.205 0-2.178 0.973-2.178 2.178s0.973 2.178 2.178 2.178zM13.096 15.274c1.205 0 2.171-0.973 2.171-2.178s-0.966-2.178-2.171-2.178c-1.205 0-2.178 0.973-2.178 2.178s0.973 2.178 2.178 2.178zM13.096 16.726c-1.692 0-5.083 0.85-5.083 2.542v1.815h10.166v-1.815c0-1.692-3.391-2.542-5.083-2.542zM18.904 16.726c-0.211 0-0.45 0.015-0.704 0.037 0.843 0.61 1.431 1.431 1.431 2.505v1.815h4.357v-1.815c0-1.692-3.391-2.542-5.083-2.542z"></path>
</svg>