<svg version="1.1" xmlns="http://www.w3.org/2000/svg" viewBox="0 0 32 32">
	<path d="M14.5 11.125c0-0.619 0.506-1.125 1.125-1.125h0.75c0.619 0 1.125 0.506 1.125 1.125v0.75c0 0.619-0.506 1.125-1.125 1.125h-0.75c-0.619 0-1.125-0.506-1.125-1.125v-0.75z"></path>
	<path d="M19 22h-6v-1.5h1.5v-4.5h-1.5v-1.5h4.5v6h1.5z"></path>
	<path d="M16 4c-6.627 0-12 5.373-12 12s5.373 12 12 12 12-5.373 12-12-5.373-12-12-12zM16 25.75c-5.385 0-9.75-4.365-9.75-9.75s4.365-9.75 9.75-9.75 9.75 4.365 9.75 9.75-4.365 9.75-9.75 9.75z"></path>
</svg>