<svg version="1.1" xmlns="http://www.w3.org/2000/svg" viewBox="0 0 32 32">
    <path d="M16 5.667c-5.683 0-10.333 4.65-10.333 10.333s4.65 10.333 10.333 10.333 10.333-4.65 10.333-10.333-4.65-10.333-10.333-10.333zM21.063 17.86c-0.517 0.723-1.447 1.137-2.377 1.137-0.517 0-1.343-0.207-1.653-0.413-0.413-0.207-1.137-0.517-1.653-1.137-0.413-0.413-0.723-0.517-1.137-0.723s-0.517-0.207-0.93-0.207c-0.413 0-0.723 0.207-1.137 0.517-0.413 0.413-0.413 0.723-0.413 1.343l-1.86-0.207c0-1.137 0.413-2.067 0.93-2.79s1.447-1.137 2.48-1.137c0.517 0 1.343 0.207 1.653 0.413 0.413 0.207 1.137 0.517 1.653 1.137 0.413 0.413 0.723 0.517 1.137 0.723s0.517 0.207 0.93 0.207c0.413 0 0.723-0.207 1.137-0.517 0.413-0.413 0.517-0.93 0.517-1.447l1.653 0.413c0 0.93-0.413 1.86-0.93 2.687z"></path>
</svg>
