<svg version="1.1" xmlns="http://www.w3.org/2000/svg" viewBox="0 0 32 32">
    <path d="M8.6 16.6v2.8h-1v-7.2h2.8c0.8 0 1.4 0.2 1.8 0.6s0.6 1 0.6 1.6c0 0.6-0.2 1.2-0.6 1.6s-1 0.6-1.8 0.6h-1.8zM8.6 15.8h1.8c0.4 0 0.8-0.2 1-0.4s0.4-0.6 0.4-1c0-0.4-0.2-0.8-0.4-1s-0.6-0.4-1-0.4h-1.8v2.8z"></path>
    <path d="M15 16.6v2.8h-1v-7.2h2.8c0.8 0 1.4 0.2 1.8 0.6s0.6 1 0.6 1.6c0 0.6-0.2 1.2-0.6 1.6s-1 0.6-1.8 0.6h-1.8zM15 15.8h1.8c0.4 0 0.8-0.2 1-0.4s0.4-0.6 0.4-1c0-0.4-0.2-0.8-0.4-1s-0.6-0.4-1-0.4h-1.8v2.8z"></path>
    <path d="M25.2 13.2h-2.2v6.4h-1v-6.4h-2.2v-0.8h5.6v0.8z"></path>
</svg>