<svg version="1.1" xmlns="http://www.w3.org/2000/svg" xmlns:xlink="http://www.w3.org/1999/xlink" viewBox="0 0 32 32">
    <path d="M25.075 12.477c-0.822 0-1.61-0.16-2.358-0.48-0.752-0.32-1.398-0.752-1.942-1.296s-0.976-1.194-1.296-1.942c-0.32-0.752-0.48-1.539-0.48-2.358 0-0.659 0.102-1.299 0.304-1.917 0.205-0.618 0.493-1.178 0.87-1.674 0.374-0.499 0.813-0.934 1.312-1.312 0.499-0.374 1.056-0.666 1.674-0.87s1.258-0.304 1.917-0.304c0.822 0 1.61 0.16 2.358 0.48 0.752 0.32 1.398 0.752 1.942 1.296s0.976 1.194 1.296 1.942c0.32 0.752 0.48 1.539 0.48 2.358s-0.16 1.61-0.48 2.358c-0.32 0.752-0.752 1.398-1.296 1.942s-1.194 0.976-1.942 1.296c-0.749 0.32-1.536 0.48-2.358 0.48zM24.326 9.642c0.048 0.058 0.112 0.083 0.186 0.083s0.134-0.029 0.186-0.083l3.949-3.949c0.048-0.048 0.074-0.112 0.074-0.186s-0.026-0.138-0.074-0.195l-1.466-1.466c-0.048-0.048-0.112-0.074-0.186-0.074s-0.134 0.026-0.186 0.074l-2.307 2.307-0.886-0.896c-0.048-0.048-0.112-0.074-0.186-0.074s-0.138 0.026-0.195 0.074l-1.466 1.466c-0.048 0.058-0.074 0.118-0.074 0.189s0.026 0.134 0.074 0.189l2.557 2.541zM1.901 8.883c-0.288 0-0.534-0.102-0.742-0.31s-0.31-0.454-0.31-0.742v-1.434h15.485c0 0.835 0.122 1.664 0.368 2.486h-14.8zM9.274 31.68v-10.534l-7.373-11.587h15.034c0.448 1.158 1.114 2.173 1.99 3.043l-5.437 8.544v6.32l-4.214 4.214z"></path>
</svg>
