<svg version="1.1" xmlns="http://www.w3.org/2000/svg" viewBox="0 0 32 32">
    <path d="M10.2 15.2l1.6-2.8h1.2l-2.2 3.6 2.4 3.6h-1.2l-1.8-2.8-1.8 2.8h-1.2l2.4-3.6-2.2-3.6h1.2l1.6 2.8z"></path>
    <path d="M15.2 18.8h3.4v0.8h-4.4v-7.2h1v6.4z"></path>
    <path d="M23.4 17.8c0-0.4-0.2-0.6-0.4-0.8s-0.6-0.4-1.2-0.6c-0.8-0.2-1.4-0.4-1.8-0.8s-0.6-0.8-0.6-1.4c0-0.6 0.2-1 0.6-1.4s1-0.6 1.8-0.6c0.8 0 1.4 0.2 1.8 0.6s0.6 1 0.6 1.4v0h-1c0-0.4-0.2-0.8-0.4-1s-0.6-0.4-1.2-0.4c-0.4 0-0.8 0.2-1.2 0.4-0.2 0.2-0.4 0.4-0.4 0.8s0.2 0.6 0.4 0.8c0.2 0.2 0.8 0.4 1.4 0.6 0.8 0.2 1.4 0.4 1.8 0.8s0.6 0.8 0.6 1.4c0 0.6-0.2 1-0.8 1.4-0.4 0.4-1 0.6-1.8 0.6s-1.4-0.2-1.8-0.6c-0.6-0.4-0.8-1-0.8-1.6v0h1c0 0.4 0.2 0.8 0.6 1s0.8 0.4 1.2 0.4c0.4 0 0.8-0.2 1.2-0.4 0.4 0 0.4-0.4 0.4-0.6z"></path>
</svg>