<svg version="1.1" xmlns="http://www.w3.org/2000/svg" width="28" height="32" viewBox="0 0 28 32">
<path d="M25.285 3.556h-1.581v-3.16h-3.16v3.16h-12.641v-3.16h-3.16v3.16h-1.581c-1.754 0-3.145 1.422-3.145 3.16l-0.017 22.123c0 1.737 1.406 3.16 3.16 3.16h22.123c1.737 0 3.16-1.422 3.16-3.16v-22.123c0-1.737-1.422-3.16-3.16-3.16h0.002zM25.285 28.84h-22.123v-17.382h22.123v17.382zM13.037 27.259h2.37v-2.37h-2.37v2.37zM14.222 13.037c-2.619 0-4.741 2.121-4.741 4.741h2.37c0-1.304 1.067-2.37 2.37-2.37s2.37 1.067 2.37 2.37c0 2.37-3.556 2.074-3.556 5.926h2.37c0-2.667 3.556-2.963 3.556-5.926 0-2.619-2.121-4.741-4.741-4.741z"></path>
</svg>