<svg version="1.1" xmlns="http://www.w3.org/2000/svg" width="28" height="32" viewBox="0 0 28 32">
    <path d="M23.321 5.722h-1.306v-2.61h-2.61v2.61h-10.441v-2.61h-2.61v2.61h-1.306c-1.449 0-2.598 1.175-2.598 2.61l-0.014 18.273c0 1.435 1.161 2.61 2.61 2.61h18.273c1.435 0 2.61-1.175 2.61-2.61v-18.273c0-1.435-1.175-2.61-2.61-2.61h0.002zM23.321 26.605h-18.273v-14.357h18.273v14.357zM13.205 25.3h1.957v-1.957h-1.957v1.957zM14.184 13.553c-2.163 0-3.916 1.752-3.916 3.916h1.957c0-1.077 0.881-1.957 1.957-1.957s1.957 0.881 1.957 1.957c0 1.957-2.937 1.713-2.937 4.895h1.957c0-2.203 2.937-2.447 2.937-4.895 0-2.163-1.752-3.916-3.916-3.916z"></path>
</svg>