<svg version="1.1" xmlns="http://www.w3.org/2000/svg" viewBox="0 0 32 32">
    <path d="M31.68 16c0 0.426-0.106 0.746-0.32 1.174-1.6 2.666-3.84 4.8-6.614 6.4s-5.654 2.454-8.746 2.454c-3.094 0-5.974-0.854-8.746-2.454-2.774-1.6-4.909-3.734-6.614-6.4-0.214-0.429-0.32-0.854-0.32-1.174 0-0.426 0.106-0.746 0.32-1.174 1.6-2.666 3.84-4.8 6.614-6.4s5.654-2.454 8.746-2.454c3.094 0 5.974 0.854 8.746 2.454 2.774 1.6 4.906 3.734 6.614 6.4 0.214 0.429 0.32 0.749 0.32 1.174zM29.44 16c-1.814-2.774-3.946-4.8-6.614-6.186 0.746 1.174 1.066 2.56 1.066 3.946 0 2.134-0.746 3.946-2.346 5.546-1.491 1.494-3.411 2.349-5.546 2.349s-3.946-0.746-5.546-2.346c-1.494-1.494-2.349-3.414-2.349-5.549 0-1.386 0.32-2.666 1.066-3.946-2.666 1.386-4.906 3.411-6.611 6.186 1.6 2.346 3.52 4.266 5.866 5.654 2.346 1.386 4.906 2.134 7.574 2.134 2.774 0 5.226-0.746 7.574-2.134 2.346-1.389 4.266-3.309 5.866-5.654zM16.64 9.92c0.214-0.214 0.214-0.32 0.214-0.64 0-0.214-0.106-0.426-0.214-0.64-0.214-0.214-0.32-0.214-0.64-0.214-1.494 0-2.666 0.534-3.734 1.6-1.066 1.066-1.6 2.24-1.6 3.734 0 0.214 0.106 0.426 0.214 0.64 0.214 0.214 0.32 0.214 0.64 0.214 0.214 0 0.426-0.106 0.64-0.214 0.214-0.214 0.214-0.32 0.214-0.64 0-0.96 0.32-1.814 1.066-2.56s1.6-1.066 2.56-1.066c0.214 0 0.426-0.109 0.64-0.214z"></path>
</svg>