<svg version="1.1" xmlns="http://www.w3.org/2000/svg" xmlns:xlink="http://www.w3.org/1999/xlink" viewBox="0 0 32 32">
    <path d="M16 17.464c-0.806 0-1.461 0.655-1.461 1.461 0 0.462 0.093 0.868 0.427 1.135 0.25 0.2 0.303 0.477 0.303 0.799l-0.729 2.441h2.92l-0.729-2.441c0-0.322 0.052-0.601 0.303-0.801 0.334-0.267 0.427-0.672 0.427-1.135 0.002-0.806-0.653-1.459-1.459-1.459v0z"></path>
    <path d="M23.304 13.075h-1.461v-2.913c0-3.22-2.622-5.842-5.842-5.842s-5.842 2.622-5.842 5.842v2.913h-1.461c-0.806 0-1.461 0.66-1.461 1.468v11.685c0 0.806 0.655 1.452 1.461 1.452h14.605c0.806 0 1.461-0.646 1.461-1.452v-11.685c0-0.808-0.653-1.468-1.459-1.468zM11.619 10.162c0-2.415 1.966-4.381 4.381-4.381s4.381 1.966 4.381 4.381v2.913h-8.762v-2.913zM23.304 26.219h-14.607v-11.682h14.607v11.682z"></path>
</svg>
