<svg version="1.1" xmlns="http://www.w3.org/2000/svg" viewBox="0 0 32 32">
    <path d="M8.4 16.6v2.8h-1v-7.2h2.8c0.8 0 1.4 0.2 1.8 0.6s0.6 1 0.6 1.6c0 0.6-0.2 1.2-0.6 1.6s-1 0.6-1.8 0.6h-1.8zM8.4 15.8h1.8c0.4 0 0.8-0.2 1-0.4s0.4-0.6 0.4-1c0-0.4-0.2-0.8-0.4-1s-0.6-0.4-1-0.4h-1.8v2.8z"></path>
    <path d="M13.8 19.6v-7.2h2.2c1 0 1.6 0.2 2.2 0.8s0.8 1.4 0.8 2.2v1c0 1-0.2 1.6-0.8 2.2s-1.4 0.8-2.2 0.8h-2.2zM14.8 13.2v5.6h1.2c0.6 0 1.2-0.2 1.6-0.6s0.6-1 0.6-1.6v-1c0-0.6-0.2-1.2-0.6-1.6s-0.8-0.6-1.6-0.6h-1.2z"></path>
    <path d="M24.6 16.4h-3.2v3.2h-1v-7.2h4.8v0.8h-3.8v2.4h3.2v0.8z"></path>
</svg>