<svg version="1.1" xmlns="http://www.w3.org/2000/svg" viewBox="0 0 32 32">
    <path d="M8.344 3.75h1.531v4.594h-1.531v-4.594z"></path>
    <path d="M20.594 3.75h1.531v4.594h-1.531v-4.594z"></path>
    <path d="M17.531 25.341c0-0.153 0-0.153 0 0l-12.25-0.153v-12.25h19.906v1.838c0.613 0.153 1.072 0.459 1.531 0.919v-10.412h-3.063v4.594h-4.594v-4.594h-7.656v4.594h-4.594v-4.594h-3.063v21.438h13.781v-1.378z"></path>
    <path d="M26.719 19.063c0 1.692-1.37 3.063-3.063 3.063s-3.063-1.37-3.063-3.063c0-1.692 1.37-3.063 3.063-3.063s3.063 1.37 3.063 3.063z"></path>
    <path d="M25.034 22.125h-2.756c-1.684 0-3.216 1.378-3.216 3.216v2.909h9.188v-2.909c0-1.837-1.378-3.216-3.216-3.216z"></path>
</svg>
