<svg version="1.1" xmlns="http://www.w3.org/2000/svg" xmlns:xlink="http://www.w3.org/1999/xlink" viewBox="0 0 32 32">
    <path d="M25.333 4h-5.573c-0.56-1.547-2.027-2.667-3.76-2.667s-3.2 1.12-3.76 2.667h-5.573c-1.467 0-2.667 1.2-2.667 2.667v18.667c0 1.467 1.2 2.667 2.667 2.667h18.667c1.467 0 2.667-1.2 2.667-2.667v-18.667c0-1.467-1.2-2.667-2.667-2.667zM16 4c0.733 0 1.333 0.6 1.333 1.333s-0.6 1.333-1.333 1.333-1.333-0.6-1.333-1.333 0.6-1.333 1.333-1.333zM16 9.333c2.213 0 4 1.787 4 4s-1.787 4-4 4-4-1.787-4-4 1.787-4 4-4zM24 25.333h-16v-1.867c0-2.667 5.333-4.133 8-4.133s8 1.467 8 4.133v1.867z"></path>
</svg>
