<svg version="1.1" xmlns="http://www.w3.org/2000/svg" xmlns:xlink="http://www.w3.org/1999/xlink" viewBox="0 0 32 32">
    <path d="M4.16 5.76c-0.886 0-1.6 0.714-1.6 1.6v17.28c0 0.886 0.714 1.6 1.6 1.6h23.68c0.886 0 1.6-0.714 1.6-1.6v-12.8c0-0.886-0.714-1.6-1.6-1.6h-11.52l-1.92-2.88c-0.492-0.738-1.034-1.6-1.92-1.6h-8.32zM14.72 13.12c2.121 0 3.84 1.719 3.84 3.84s-1.719 3.84-3.84 3.84c-2.121 0-3.84-1.719-3.84-3.84s1.719-3.84 3.84-3.84zM18.080 19.4l2.85 2.85c0.255 0.255 0.255 0.666 0 0.92s-0.665 0.255-0.92 0l-2.85-2.85c0.355-0.258 0.662-0.565 0.92-0.92z"></path>
</svg>
