<svg version="1.1" xmlns="http://www.w3.org/2000/svg" viewBox="0 0 32 32">
	<path d="M16 6.174l10.057 20.044h-20.114l10.057-20.044zM16 4c-0.517 0-1.034 0.349-1.427 1.046l-10.244 20.417c-0.785 1.395-0.117 2.537 1.484 2.537h20.374c1.601 0 2.269-1.142 1.484-2.537h0l-10.244-20.417c-0.392-0.698-0.91-1.046-1.427-1.046v0z"></path>
	<path d="M17.5 23.5c0 0.828-0.672 1.5-1.5 1.5s-1.5-0.672-1.5-1.5c0-0.828 0.672-1.5 1.5-1.5s1.5 0.672 1.5 1.5z"></path>
	<path d="M16 20.5c-0.828 0-1.5-0.672-1.5-1.5v-4.5c0-0.828 0.672-1.5 1.5-1.5s1.5 0.672 1.5 1.5v4.5c0 0.828-0.672 1.5-1.5 1.5z"></path>
</svg>